<?xml version="1.0" encoding="UTF-8"?>
<svg width="898px" height="229px" viewBox="0 0 898 229" version="1.1" xmlns="http://www.w3.org/2000/svg" xmlns:xlink="http://www.w3.org/1999/xlink">
    <!-- Generator: Sketch 46.2 (44496) - http://www.bohemiancoding.com/sketch -->
    <title>Group</title>
    <desc>Created with Sketch.</desc>
    <defs></defs>
    <g id="Page-1" stroke="none" stroke-width="1" fill="none" fill-rule="evenodd">
        <g id="Desktop-HD" transform="translate(-39.000000, -52.000000)">
            <g id="Group" transform="translate(40.000000, 43.000000)">
                <text id="General-Trademark-is" font-family="WorkSans-Medium, Work Sans" font-size="48" font-weight="400">
                    <tspan x="4" y="45" fill="#000000" xml:space="preserve">General Trademark</tspan>
                    <tspan x="450.928" y="45" font-family="WorkSans-Regular, Work Sans" font-weight="normal" fill="#000000" xml:space="preserve"> is a design studio </tspan>
                    <tspan x="4" y="102" font-family="WorkSans-Regular, Work Sans" font-weight="normal" fill="#000000">doing research &amp; </tspan>
                    <tspan x="413.92" y="102" font-family="WorkSans-Regular, Work Sans" font-weight="normal" fill="#091930">development</tspan>
                    <tspan x="721.456" y="102" font-family="WorkSans-Regular, Work Sans" font-weight="normal" fill="#000000">.</tspan>
                    <tspan x="4" y="159" font-family="WorkSans-Regular, Work Sans" font-weight="normal" fill="#000000"></tspan>
                    <tspan x="4" y="216" font-family="WorkSans-Regular, Work Sans" font-size="32" font-weight="normal" fill="#000000">We make tools to answer questions.</tspan>
                </text>
                <path d="M523.925781,175.523438 C483.40625,176.703125 442.841924,176.82201 402.367188,179.0625 C402.211673,179.071109 384.634065,182.737302 392.054688,190.203125 C400.157041,198.354832 420.784514,208.924427 432.757812,212.855469 C467.043567,224.112078 505.213276,228.322127 541.1875,224.738281 C553.507887,223.510892 584.066143,218.53894 577.285156,198.007812 C573.559977,186.728905 559.042899,176.111145 547.480469,174.871094 C506.517377,170.47787 477.152228,176.851549 441.597656,195.75 C437.843317,197.745558 427.27172,200.93535 431.039062,202.90625 C453.872256,214.851525 479.451129,220.632066 504.019531,228.40625 C525.779107,235.291637 553.937452,239.140858 576.679688,236.246094 C594.486236,233.979573 586.225042,207.081566 576.679688,200.054688 C545.695186,177.245232 501.219847,176.239087 464.515625,174.984375" id="Path-3" stroke="#4A4A4A"></path>
                <path d="M222.75,164.246094 C298.275661,132.648693 372.909101,116.374597 451.097656,157.324219" id="Path-4" stroke="#4A4A4A"></path>
                <path d="M21.9824219,58.0703125 C116.100911,58.0703125 210.219596,57.8787931 304.337891,58.0703125 C312.283297,58.0864804 320.240798,58.1270766 328.166016,58.6933594 C340.955073,59.6071795 353.626817,62.0819394 366.441406,62.5078125 C379.755967,62.9503014 419.657844,62.4771951 406.388672,61.2929688 C330.213028,54.494564 281.546016,61.3744699 202.654297,58.2285156 C186.358211,57.5786788 170.384956,53.4061089 154.167969,51.6757813 C147.706971,50.9864027 141.184886,50.9156852 134.6875,50.9765625 C103.446385,51.2692761 72.1956832,51.5282478 40.9765625,52.7363281 C28.1119917,53.234146 -9.87994505,52.5588145 2.5,56.0917969 C18.3060469,60.6025184 35.4021538,54.8573696 51.8105469,55.828125 C92.7935838,58.2527686 133.67092,62.2793416 174.53125,66.2695313 C194.381804,68.2080245 213.984316,72.8319315 233.914062,73.6113281 C339.68806,77.7478533 331.640627,75.7174613 418.667969,63.4433594" id="Path" stroke="#4A4A4A" stroke-linecap="round" stroke-linejoin="round"></path>
                <path d="M575.777344,31.3671875 C623.803385,31.2617188 671.829458,31.1693929 719.855469,31.0507812 C725.177067,31.0376383 709.197504,30.6550378 703.890625,31.0507812 C690.476483,32.0510978 677.107596,33.6160964 663.753906,35.234375 C631.99947,39.0825643 600.526318,45.9605386 568.574219,47.4492188 C565.236102,47.6047449 558.557834,40.2732795 561.886719,39.9804688 C873.22266,12.5951663 520.381715,60.0890162 698.773438,30.4726562 C702.713005,29.8186145 714.73236,30.8188715 710.753906,30.4726562 C682.788305,28.0390177 654.819248,25.4028493 626.773438,24.2070313 C605.802908,23.3128892 542.815104,24.2070313 563.804688,24.2070313 C609.643229,24.2070313 658.317322,8.33520975 701.320312,24.2070313 C722.284648,31.9446836 579.870395,31.2773438 549.386719,31.2773438 C541.277344,31.2773438 565.683325,30.1563322 573.714844,31.2773438 C594.876817,34.2310585 615.345467,41.8026429 636.648438,43.4570312 C662.759028,45.4847793 689.219035,45.5057991 715.207031,42.265625 C722.788499,41.3203703 700.566011,37.7584435 693.042969,36.4257812 C681.757962,34.4267095 670.356458,32.8672923 658.910156,32.2929688 C642.852232,31.4872548 626.753906,32.2929688 610.675781,32.2929688" id="Path-7" stroke="#4A4A4A"></path>
                <path d="M161.123283,212.273039 C165.812088,192.386336 159.788982,204.032404 183.353191,216.961896 C184.461062,217.569776 182.555852,212.655304 183.702259,213.18695 L187.882242,209.586538 C193.582427,212.229997 196.038864,220.838925 202.250012,221.788465 C205.533442,222.290425 202.123895,213.948952 204.944613,212.194977 C207.470361,210.624421 211.254546,216.78532 213.476167,214.807835 C217.277467,211.424262 213.331659,201.47629 218.287271,200.318553 C223.677726,199.059229 225.82258,209.796238 231.292644,210.645526 C236.253453,211.415748 240.45041,206.528877 245.029293,204.470552" id="Path-2" stroke="#4A4A4A"></path>
                <path d="M226.246618,150.607247 C255.782079,173.859783 253.73155,164.269813 207.754834,173.489633" id="Path-6" stroke="#4A4A4A"></path>
                <path d="M456.482219,147.573151 C451.40379,152.810894 442.899036,156.180401 441.246933,163.286381 C440.395327,166.949284 448.714678,164.564943 452.207973,165.957416 C459.244891,168.762425 470.995509,183.202361 472.683702,175.817492 C475.012643,165.629723 461.578322,158.110743 456.025631,149.257369" id="Path-5" stroke="#4A4A4A"></path>
                <path d="M225.026352,150.93054 C221.235941,156.848991 217.445531,162.767442 213.65512,168.685893" id="Path-15" stroke="#4A4A4A"></path>
            </g>
        </g>
    </g>
</svg>
