<?xml version="1.0" encoding="UTF-8"?>
<svg width="290px" height="202px" viewBox="0 0 290 202" version="1.1" xmlns="http://www.w3.org/2000/svg" xmlns:xlink="http://www.w3.org/1999/xlink">
    <!-- Generator: Sketch 46.2 (44496) - http://www.bohemiancoding.com/sketch -->
    <defs></defs>
    <g id="Page-1" stroke="none" stroke-width="1" fill="none" fill-rule="evenodd">
        <g id="Mobile" transform="translate(-17.000000, -144.000000)">
            <g id="Group" transform="translate(11.000000, 140.000000)">
                <text id="General-Trademark-is" font-family="WorkSans-Medium, Work Sans" font-size="24" font-weight="400" fill="#091930">
                    <tspan x="15.052" y="22" xml:space="preserve">General Trademark </tspan>
                    <tspan x="238.516" y="22" font-family="WorkSans-Regular, Work Sans" font-weight="normal" xml:space="preserve"> is a </tspan>
                    <tspan x="35.86" y="50" font-family="WorkSans-Regular, Work Sans" font-weight="normal">design studio doing </tspan>
                    <tspan x="4.6" y="78" font-family="WorkSans-Regular, Work Sans" font-weight="normal">research &amp; development.</tspan>
                    <tspan x="151" y="106" font-family="WorkSans-Regular, Work Sans" font-size="48" font-weight="normal"></tspan>
                    <tspan x="26.36" y="163" font-family="WorkSans-Regular, Work Sans" font-size="20" font-weight="normal">We make tools to answer </tspan>
                    <tspan x="100.37" y="187" font-family="WorkSans-Regular, Work Sans" font-size="20" font-weight="normal">questions.</tspan>
                </text>

                <polyline id="Path-13" stroke="#4A4A4A" points="152.472857 182.153249 169.051164 182.153249 169.197242 182.153249 169.985762 182.153249 170.228728 182.153249 170.374806 182.153249 170.485109 182.153249 170.631186 182.153249 170.751924 182.153249"></polyline>
                <path d="M88.3026092,40.7033656 C76.9398655,40.7033656 51.0187334,51.6074841 54.2143779,40.7033656 C57.5258311,29.404087 77.6869255,38.6925127 89.3549636,37.1125418 C90.0076422,37.0241625 87.8757982,35.5772221 87.6124675,36.180925 L84.2362882,38.7223756 C82.8342742,41.9365852 81.4089077,45.5526124 82.018295,49.0059345 C82.3409261,50.8342453 84.7947738,51.7618769 86.607812,52.1615069 C91.1064826,53.1531042 95.8259534,53.6151065 100.398722,53.0573496 C123.985103,50.1804344 93.1596876,50.9412821 107.8606,45.2138815 C109.01054,44.7658705 109.658463,49.5333355 109.877364,48.3187739 C110.843066,42.9606041 104.799642,32.0211714 110.244048,31.9893947 C116.004826,31.9557715 119.732724,43.8893548 116.006657,48.2829998 C112.633087,52.2609935 110.918876,39.1163985 107.639993,35.0600037 C107.172064,34.4811161 106.899469,36.490407 107.061645,37.2168829 C107.808603,40.56292 113.622713,47.8261311 110.30069,46.9787363 C105.386498,45.7252046 98.7543071,30.6723524 100.31823,35.4967456 L92.6461794,29.1990161 C100.712065,54.0806793 119.170202,58.3610414 87.6497322,36.9262184 C84.0509328,34.4789316 73.1719642,27.6114757 76.1066274,30.8252463 C83.2738113,38.6740806 93.2995228,43.5020569 100.658084,51.1717572 C104.926062,55.6201966 79.4669076,39.2574067 85.4839094,40.5990245 C93.2375672,42.3278665 113.895226,54.3244416 106.186671,52.4044726 C88.625289,48.0304611 71.6722677,25.1216212 55.4351686,33.1147878 C44.365568,38.5641085 212.142973,118.299226 30.949298,25.0134481 C6.92553005,12.645048 52.7660194,38.8947394 54.4454189,38.764112 C56.4086401,38.6114084 25.7710818,-16.3529794 68.0142313,45.0827098 C69.5939257,47.3801147 62.3456934,45.6144299 59.6520389,44.8948959 C52.6351257,43.0205249 46.1834913,35.3963189 39.1982057,37.3853192 C34.9723111,38.5886065 44.3189227,44.6942468 45.6435034,48.8837064 C46.6300759,52.0040944 37.9967387,43.0667954 40.2416166,40.6854785 C42.4283368,38.3658539 45.0691306,44.8501783 47.4828876,46.9325281" id="Path-16" stroke="#4A4A4A"></path>
                <path d="M124,162.23823 C129.777295,149.617062 121.297751,163.695135 135.329635,164.269503 C137.737041,164.368045 135.441813,157.480856 137.851192,157.495318 C141.054445,157.514545 141.422078,164.028446 144.611612,164.325217 C146.898302,164.537982 146.086627,159.291263 148.227788,158.460811 C149.971867,157.784368 151.468526,161.566178 153.244027,160.977124 L156.168692,161.089208 C157.126055,160.771586 157.546183,159.345884 158.546703,159.217868 C160.284717,158.995491 161.998795,159.820892 163.724841,160.122404" id="Path-8" stroke="#4A4A4A"></path>
                <path d="M118.602037,188.65426 C138.400222,188.320194 158.238079,188.948536 177.996593,187.652061 C219.190029,184.949111 191.42317,171.639484 176.956377,170.904389 C166.342642,170.365077 155.698908,171.37819 145.074777,171.113481 C119.419078,170.474247 148.76916,163.05444 99.7680343,173.68092 C98.4345036,173.970112 97.2660347,177.179007 98.5659197,177.594019 L101.027829,179.216284 C109.269617,181.847627 117.665166,183.970558 125.983834,186.347695" id="Path-10" stroke="#4A4A4A"></path>
                <path d="M148.517342,141.885123 C139.651964,134.51074 138.507467,132.466097 126.764091,127.994846 C122.745179,126.464659 110.197895,123.68944 105.370369,125.319119 C78.5985092,134.356779 62.8852911,180.142757 93.0789612,195.069531 C104.273081,200.603542 130.01502,212.122897 141.916177,198.699395" id="Path-2" stroke="#4A4A4A"></path>
                <path d="M134.843129,198.063304 C150.010709,203.358983 152.501347,209.634574 150.003858,194.234663 C149.909796,193.654667 149.139605,193.438398 148.707478,193.040265" id="Path-3" stroke="#4A4A4A"></path>
                <path d="M133.493166,195.902671 C146.39465,195.902671 141.952925,197.82329 147.945207,194.525052" id="Path-4" stroke="#4A4A4A"></path>
                <path d="M149.941631,138.690843 C134.078223,145.18139 134.563053,141.765778 151.187884,148.965084" id="Path-5" stroke="#4A4A4A"></path>
                <path d="M153.350246,137.588056 C153.016644,141.628151 152.683042,145.668247 152.349441,149.708342" id="Path-6" stroke="#4A4A4A"></path>

            </g>
        </g>
    </g>
</svg>
