<svg version="1.1" xmlns="http://www.w3.org/2000/svg" xmlns:xlink="http://www.w3.org/1999/xlink" width="720" height="826"><g fill="none" fill-rule="nonzero" stroke="none" stroke-width="2" stroke-linecap="butt" stroke-linejoin="miter" stroke-miterlimit="10" stroke-dasharray="" stroke-dashoffset="0" font-family="none" font-weight="none" font-size="none" text-anchor="none" style="mix-blend-mode: normal"><path d="M491,357v-1v0v-2l-6,-6l-9,-8l-24,-18l-41,-22l-51,-17l-39,-6h-41l-46,22l-28,33l-18,34l-12,46l-1,55l38,53l81,34l99,2l56,-30l34,-44l22,-53l12,-37l13,-42l15,-30l9,-13l6,-9l5,-6l3,-3h1" stroke="#000000"/><path d="M435,409l-12,-6v0l-30,-11l-26,-3l-33,-1h-18l-14,5l-11,26v20l14,34l37,26l45,17l31,1l20,-2l24,-13l6,-11l5,-20l1,-8v-7v-4v-1l1,1l4,8l11,11l20,11l16,3l27,1l14,-7l19,-12l17,-13l8,-5" stroke="#c64837"/><path d="M315,405v-4v0v-8v-11v-12v-8v-8l-1,-8l-5,-5l-10,-4l-19,-3h-29l-18,5l-12,8l-10,9l-4,8v8l8,3h13l14,-10l21,-31l17,-45l20,-60l25,-66l13,-42l5,-16l8,-26l1,-5h1h4l11,5l18,9l29,14l31,18l27,19l15,10l8,6l7,5" stroke="#ea5729"/><path d="M411,500h-11v0h-29h-40h-33l-41,7l-34,15l-32,24l-15,19l-7,15l-3,8l-1,7l-1,3h-2h-7l-5,-3l-14,-10l-19,-16l-12,-13l-13,-15l-5,-8l-4,-7l-1,-6l1,-4l11,-6l31,-14l38,-14l31,-8l37,-7l20,-1l20,-1l15,-1l17,-4l13,-8l11,-14l6,-18l2,-26v-31l-12,-42l-11,-14l-13,-14l-11,-8l-10,-3l-7,-1h-7l-14,5l-16,11l-7,5l-8,5l-5,1v-1l11,-11l26,-21l63,-33l34,-13l37,-13l20,-6l19,-6l12,-4l11,-4l10,-2l8,-2h8h7l16,3l19,7l14,5l11,3l9,3h6l2,-2v-6v-8l-2,-17l-4,-31l-2,-29" stroke="#ee6127"/><path d="M431,376h1v0l7,-3l9,-4l18,-8l17,-5l45,-4h23l29,3l23,14l17,23l11,33l2,33l-1,34l-23,42l-39,29l-52,25l-42,12l-34,6l-29,1l-16,-1l-14,-10l-15,-37l-5,-37v-28l6,-35l16,-26l19,-17l20,-9l20,-2l20,4l21,16l31,32l18,24l22,29l10,18l4,11l3,8l1,2l-4,-9l-7,-32l-3,-47v-62l2,-66l4,-42l3,-34v-27l-4,-13l-6,-6l-15,-3h-20l-18,4l-10,3l-9,2l-1,1v-1l10,-14l18,-21l19,-20l24,-22l15,-10l15,-9l8,-2l7,-1" stroke="#ce8a2a"/><path d="M544,297h-3v0h-7h-13l-30,-1h-44h-85l-57,9l-47,19l-25,15l-23,20l-13,15l-9,15l-5,12l-1,10v4v3v2l-1,1h-1l-6,-5l-8,-14l-13,-38l-2,-29v-16l5,-15l19,-22l30,-17l79,-29l68,-11l83,-6h42l38,8l20,9l27,20l25,37l8,24" stroke="#50bb8c"/></g></svg>