<svg version="1.1" xmlns="http://www.w3.org/2000/svg" xmlns:xlink="http://www.w3.org/1999/xlink" width="720" height="826"><g fill="none" fill-rule="nonzero" stroke="none" stroke-width="2" stroke-linecap="butt" stroke-linejoin="miter" stroke-miterlimit="10" stroke-dasharray="" stroke-dashoffset="0" font-family="none" font-weight="none" font-size="none" text-anchor="none" style="mix-blend-mode: normal"><path d="M264,436c-0.86179,-0.00555 -1.72358,-0.01109 -2,0c-0.27642,0.01109 0.03254,0.03882 0,0c-0.03254,-0.03882 -0.40656,-0.14417 -1,0c-0.59344,0.14417 -1.4063,0.53788 -2,1c-0.5937,0.46212 -0.96824,0.99267 -3,2c-2.03176,1.00733 -5.72074,2.49144 -8,3c-2.27926,0.50856 -3.14879,0.04157 -4,0c-0.85121,-0.04157 -1.68409,0.34229 -3,1c-1.31591,0.65771 -3.11484,1.58927 -4,2c-0.88516,0.41073 -0.85657,0.30062 -2,1c-1.14343,0.69938 -3.4589,2.20823 -5,3c-1.5411,0.79177 -2.30782,0.86645 -3,1c-0.69218,0.13355 -1.30982,0.32597 -2,1c-0.69018,0.67403 -1.45289,1.82968 -2,3c-0.54711,1.17032 -0.87863,2.35532 -1,3c-0.12137,0.64468 -0.03258,0.74905 0,1c0.03258,0.25095 0.00895,0.64848 0,1c-0.00895,0.35152 -0.0032,0.65704 0,1c0.0032,0.34296 0.00387,0.72337 0,1c-0.00387,0.27663 -0.01226,0.44949 0,1c0.01226,0.55051 0.04518,1.47867 0,2c-0.04518,0.52133 -0.16846,0.63584 0,1c0.16846,0.36416 0.62866,0.97797 1,1c0.37134,0.02203 0.65382,-0.54771 1,0c0.34618,0.54771 0.75606,2.21289 2,3c1.24394,0.78711 3.32194,0.69616 4,1c0.67806,0.30384 -0.04384,1.00247 2,2c2.04384,0.99753 6.8534,2.29396 9,3c2.1466,0.70604 1.63022,0.82168 3,1c1.36978,0.17832 4.62572,0.41932 7,1c2.37428,0.58068 3.86688,1.50103 5,2c1.13312,0.49897 1.90674,0.57656 4,1c2.09326,0.42344 5.50616,1.19273 8,2c2.49384,0.80727 4.06861,1.65251 7,2c2.93139,0.34749 7.2194,0.19722 10,0c2.7806,-0.19722 4.05377,-0.44138 6,0c1.94623,0.44138 4.56551,1.56828 7,2c2.43449,0.43172 4.68421,0.16824 7,0c2.31579,-0.16824 4.69767,-0.24123 7,0c2.30233,0.24123 4.52511,0.79669 6,1c1.47489,0.20331 2.20188,0.05448 7,0c4.79812,-0.05448 13.66736,-0.01462 19,0c5.33264,0.01462 7.12868,0.004 11,0c3.87132,-0.004 9.81791,-0.00138 15,0c5.18209,0.00138 9.59966,0.00153 13,0c3.40034,-0.00153 5.78343,-0.00472 9,0c3.21657,0.00472 7.2666,0.01736 11,0c3.7334,-0.01736 7.15017,-0.0647 12,0c4.84983,0.0647 11.13272,0.24146 14,0c2.86728,-0.24146 2.31896,-0.90115 3,-1c0.68104,-0.09885 2.59144,0.36312 4,0c1.40856,-0.36312 2.3153,-1.55134 3,-2c0.6847,-0.44866 1.14738,-0.15775 2,0c0.85262,0.15775 2.09518,0.18235 3,0c0.90482,-0.18235 1.47189,-0.57165 2,-1c0.52811,-0.42835 1.01727,-0.89575 2,-1c0.98273,-0.10425 2.45903,0.15466 3,0c0.54097,-0.15466 0.14663,-0.72289 1,-1c0.85337,-0.27711 2.95447,-0.26311 5,-1c2.04553,-0.73689 4.03551,-2.22467 5,-3c0.96449,-0.77533 0.90349,-0.8382 1,-1c0.09651,-0.1618 0.35051,-0.42253 1,-1c0.64949,-0.57747 1.69446,-1.47168 2,-2c0.30554,-0.52832 -0.12837,-0.69077 0,-1c0.12837,-0.30923 0.819,-0.76526 1,-1c0.181,-0.23474 -0.14765,-0.24821 0,-1c0.14765,-0.75179 0.7716,-2.2419 1,-3c0.2284,-0.7581 0.06124,-0.78418 0,-1c-0.06124,-0.21582 -0.01655,-0.62139 0,-1c0.01655,-0.37861 0.00497,-0.73027 0,-1c-0.00497,-0.26973 -0.00333,-0.45752 0,-1c0.00333,-0.54248 0.00835,-1.43964 0,-2c-0.00835,-0.56036 -0.03006,-0.7839 0,-1c0.03006,-0.2161 0.11189,-0.42475 0,-1c-0.11189,-0.57525 -0.41752,-1.51709 -1,-2c-0.58248,-0.48291 -1.44183,-0.50687 -2,-1c-0.55817,-0.49313 -0.81516,-1.45542 -1,-2c-0.18484,-0.54458 -0.29754,-0.67144 -1,-1c-0.70246,-0.32856 -1.99467,-0.85884 -3,-1c-1.00533,-0.14116 -1.72379,0.10678 -3,0c-1.27621,-0.10678 -3.11019,-0.56828 -5,-1c-1.88981,-0.43172 -3.83545,-0.83365 -5,-1c-1.16455,-0.16635 -1.548,-0.09713 -3,0c-1.452,0.09713 -3.97256,0.22218 -6,0c-2.02744,-0.22218 -3.56176,-0.79158 -5,-1c-1.43824,-0.20842 -2.78041,-0.05585 -4,0c-1.21959,0.05585 -2.31659,0.01497 -3,0c-0.68341,-0.01497 -0.95323,-0.00403 -2,0c-1.04677,0.00403 -2.87051,0.00115 -4,0c-1.12949,-0.00115 -1.56475,-0.00058 -2,0c-0.43525,0.00058 -98.21763,10.50029 -196,21" stroke="#ee5421"/><path d="M224,461c-0.42266,0.02523 -0.84531,0.05045 -1,0c-0.15469,-0.05045 -0.04141,-0.17658 0,0c0.04141,0.17658 0.01095,0.65589 0,1c-0.01095,0.34411 -0.00238,0.55304 0,1c0.00238,0.44696 -0.00144,1.13194 0,2c0.00144,0.86806 0.00815,1.91919 0,4c-0.00815,2.08081 -0.03115,5.19131 0,7c0.03115,1.80869 0.11644,2.31557 0,4c-0.11644,1.68443 -0.43461,4.54642 0,6c0.43461,1.45358 1.62199,1.49876 2,2c0.37801,0.50124 -0.05336,1.45856 0,2c0.05336,0.54144 0.59145,0.66701 1,2c0.40855,1.33299 0.68757,3.87341 1,5c0.31243,1.12659 0.65828,0.83933 1,1c0.34172,0.16067 0.67929,0.76925 1,2c0.32071,1.23075 0.62454,3.08368 1,4c0.37546,0.91632 0.82254,0.89605 1,1c0.17746,0.10395 0.08529,0.33212 0,1c-0.08529,0.66788 -0.16369,1.77547 0,2c0.16369,0.22453 0.56946,-0.43399 1,0c0.43054,0.43399 0.88583,1.96048 1,3c0.11417,1.03952 -0.1128,1.59206 0,2c0.1128,0.40794 0.56536,0.67129 1,1c0.43464,0.32871 0.85135,0.72277 1,1c0.14865,0.27723 0.02925,0.43761 0,1c-0.02925,0.56239 0.03167,1.52679 0,2c-0.03167,0.47321 -0.15591,0.45523 0,1c0.15591,0.54477 0.59199,1.65228 1,2c0.40801,0.34772 0.78795,-0.06437 1,0c0.21205,0.06437 0.25622,0.60518 1,1c0.74378,0.39482 2.18717,0.64363 3,1c0.81283,0.35637 0.99509,0.82028 2,1c1.00491,0.17972 2.83245,0.07524 5,0c2.16755,-0.07524 4.67509,-0.12123 7,0c2.32491,0.12123 4.46718,0.40969 7,1c2.53282,0.59031 5.45619,1.48247 8,2c2.54381,0.51753 4.70805,0.66043 7,1c2.29195,0.33957 4.7116,0.87579 6,1c1.2884,0.12421 1.44554,-0.16361 3,0c1.55446,0.16361 4.50622,0.77865 7,1c2.49378,0.22135 4.52957,0.049 9,0c4.47043,-0.049 11.37551,0.02535 15,0c3.62449,-0.02535 3.96839,-0.15039 8,0c4.03161,0.15039 11.75093,0.57619 16,1c4.24907,0.42381 5.02787,0.84561 7,1c1.97213,0.15439 5.13757,0.04137 8,0c2.86243,-0.04137 5.42183,-0.0111 7,0c1.57817,0.0111 2.17511,0.00303 4,0c1.82489,-0.00303 4.87773,-0.00103 7,0c2.12227,0.00103 3.31397,0.00108 5,0c1.68603,-0.00108 3.8664,-0.00328 6,0c2.1336,0.00328 4.22042,0.01205 5,0c0.77958,-0.01205 0.2519,-0.04493 1,0c0.7481,0.04493 2.77197,0.16768 4,0c1.22803,-0.16768 1.66022,-0.6258 3,-1c1.33978,-0.3742 3.58714,-0.66447 5,-1c1.41286,-0.33553 1.9912,-0.71633 3,-1c1.0088,-0.28367 2.44804,-0.47021 5,-1c2.55196,-0.52979 6.21663,-1.40284 8,-2c1.78337,-0.59716 1.68545,-0.91842 2,-1c0.31455,-0.08158 1.04159,0.07651 2,0c0.95841,-0.07651 2.1482,-0.38761 3,-1c0.8518,-0.61239 1.36561,-1.52605 2,-2c0.63439,-0.47395 1.38936,-0.50819 2,-1c0.61064,-0.49181 1.07694,-1.4412 2,-2c0.92306,-0.5588 2.30287,-0.727 3,-1c0.69713,-0.273 0.71158,-0.65078 1,-1c0.28842,-0.34922 0.8508,-0.66987 1,-1c0.1492,-0.33013 -0.1148,-0.66974 0,-1c0.1148,-0.33026 0.60838,-0.65119 1,-1c0.39162,-0.34881 0.68127,-0.72551 1,-1c0.31873,-0.27449 0.66653,-0.44677 1,-1c0.33347,-0.55323 0.65262,-1.48741 1,-2c0.34738,-0.51259 0.72298,-0.6036 1,-1c0.27702,-0.3964 0.45545,-1.09818 1,-2c0.54455,-0.90182 1.45522,-2.00369 2,-3c0.54478,-0.99631 0.72366,-1.88705 1,-3c0.27634,-1.11295 0.65013,-2.4481 1,-3c0.34987,-0.5519 0.67583,-0.32054 1,-2c0.32417,-1.67946 0.64656,-5.26972 1,-7c0.35344,-1.73028 0.73793,-1.60056 1,-4c0.26207,-2.39944 0.40171,-7.32803 1,-10c0.59829,-2.67197 1.65521,-3.08733 2,-4c0.34479,-0.91267 -0.02256,-2.32264 0,-3c0.02256,-0.67736 0.43502,-0.6221 1,0c0.56498,0.6221 1.28249,1.81105 2,3c0.71751,1.18895 1.35875,1.09447 2,1" stroke="#ee5421"/><path d="M467,466c-0.00001,0.83905 -0.00002,1.67811 0,2c0.00002,0.32189 0.00006,0.12662 0,0c-0.00006,-0.12662 -0.00023,-0.18459 0,2c0.00023,2.18459 0.00085,6.61174 0,9c-0.00085,2.38826 -0.00318,2.73764 0,6c0.00318,3.26236 0.01186,9.43771 0,12c-0.01186,2.56229 -0.04426,1.51153 0,3c0.04426,1.48847 0.16519,5.51618 0,7c-0.16519,1.48382 -0.61648,0.42375 -1,1c-0.38352,0.57625 -0.69925,2.78881 -1,4c-0.30075,1.21119 -0.5865,1.421 -1,2c-0.4135,0.579 -0.95473,1.5272 -2,2c-1.04527,0.4728 -2.59458,0.4702 -4,1c-1.40542,0.5298 -2.66695,1.59199 -4,2c-1.33305,0.40801 -2.73764,0.16183 -4,0c-1.26236,-0.16183 -2.3825,-0.2393 -4,0c-1.6175,0.2393 -3.73235,0.79538 -5,1c-1.26765,0.20462 -1.6881,0.05778 -2,0c-0.3119,-0.05778 -0.51526,-0.02651 -2,0c-1.48474,0.02651 -4.25086,0.04827 -7,0c-2.74914,-0.04827 -5.48128,-0.16657 -8,0c-2.51872,0.16657 -4.824,0.61802 -7,1c-2.176,0.38198 -4.22271,0.69451 -6,1c-1.77729,0.30549 -3.28516,0.60394 -5,1c-1.71484,0.39606 -3.63663,0.88972 -5,1c-1.36337,0.11028 -2.1683,-0.16283 -3,0c-0.8317,0.16283 -1.69015,0.7616 -3,1c-1.30985,0.2384 -3.07108,0.11643 -4,0c-0.92892,-0.11643 -1.02551,-0.22733 -2,0c-0.97449,0.22733 -2.82687,0.79289 -4,1c-1.17313,0.20711 -1.66703,0.05577 -3,0c-1.33297,-0.05577 -3.50503,-0.01595 -5,0c-1.49497,0.01595 -2.31285,0.00805 -3,0c-0.68715,-0.00805 -1.24358,-0.01624 -2,0c-0.75642,0.01624 -1.71283,0.05691 -2,0c-0.28717,-0.05691 0.09489,-0.2114 -1,0c-1.09489,0.2114 -3.66672,0.7887 -5,1c-1.33328,0.2113 -1.42802,0.05662 -2,0c-0.57198,-0.05662 -1.6212,-0.01517 -3,0c-1.3788,0.01517 -3.08716,0.00407 -4,0c-0.91284,-0.00407 -1.03014,-0.00109 -2,0c-0.96986,0.00109 -2.79228,0.00029 -4,0c-1.20772,-0.00029 -1.80074,-0.00008 -3,0c-1.19926,0.00008 -3.00476,0.00002 -4,0c-0.99524,-0.00002 -1.1802,-0.00001 -2,0c-0.8198,0.00001 -2.27442,0 -3,0c-0.72558,0 -0.72213,0 -3,0c-2.27787,0 -6.83708,0 -9,0c-2.16292,0 -1.92955,0 -3,0c-1.07045,0 -3.44472,0 -5,0c-1.55528,0 -2.29158,0 -3,0c-0.70842,0 -1.38897,0 -4,0c-2.61103,0 -7.15253,0 -11,0c-3.84747,0 -7.00089,0 -9,0c-1.99911,0 -2.84391,0.00001 -3,0c-0.15609,-0.00001 0.37654,-0.00002 -1,0c-1.37654,0.00002 -4.66224,0.00008 -7,0c-2.33776,-0.00008 -3.72759,-0.00031 -5,0c-1.27241,0.00031 -2.42742,0.00115 -3,0c-0.57258,-0.00115 -0.56273,-0.0043 -1,0c-0.43727,0.0043 -1.32167,0.01605 -2,0c-0.67833,-0.01605 -1.1506,-0.05991 -2,0c-0.8494,0.05991 -2.07592,0.22358 -3,0c-0.92408,-0.22358 -1.54572,-0.83443 -2,-1c-0.45428,-0.16557 -0.74119,0.11413 -1,0c-0.25881,-0.11413 -0.48951,-0.62209 -1,-1c-0.51049,-0.37791 -1.30077,-0.62577 -2,-1c-0.69923,-0.37423 -1.30742,-0.87484 -2,-1c-0.69258,-0.12516 -1.46957,0.12512 -3,0c-1.53043,-0.12512 -3.81431,-0.62565 -5,-1c-1.18569,-0.37435 -1.27318,-0.62253 -2,-1c-0.72682,-0.37747 -2.09295,-0.88421 -3,-1c-0.90705,-0.11579 -1.35502,0.15939 -2,0c-0.64498,-0.15939 -1.48699,-0.75336 -2,-1c-0.51301,-0.24664 -0.69703,-0.14595 -1,0c-0.30297,0.14595 -0.72488,0.33717 -1,0c-0.27512,-0.33717 -0.40344,-1.20272 -1,-2c-0.59656,-0.79728 -1.66134,-1.52628 -2,-2c-0.33866,-0.47372 0.04881,-0.69215 0,-1c-0.04881,-0.30785 -0.5339,-0.70513 -1,-1c-0.4661,-0.29487 -0.9132,-0.48734 -1,-1c-0.0868,-0.51266 0.18671,-1.34551 0,-2c-0.18671,-0.65449 -0.83363,-1.13063 -1,-2c-0.16637,-0.86937 0.1478,-2.13198 0,-3c-0.1478,-0.86802 -0.75757,-1.34144 -1,-2c-0.24243,-0.65856 -0.11752,-1.50225 0,-2c0.11752,-0.49775 0.22764,-0.64955 0,-1c-0.22764,-0.35045 -0.79305,-0.89954 -1,-2c-0.20695,-1.10046 -0.05545,-2.7523 0,-4c0.05545,-1.2477 0.01486,-2.09128 0,-3c-0.01486,-0.90872 -0.00398,-1.8826 0,-3c0.00398,-1.1174 0.00107,-2.37832 0,-3c-0.00107,-0.62168 -0.00029,-0.60411 0,-1c0.00029,-0.39589 0.00008,-1.20524 0,-2c-0.00008,-0.79476 -0.00002,-1.57491 0,-2c0.00002,-0.42509 0.00001,-0.4951 0,-1c-0.00001,-0.5049 0,-1.44468 0,-2c0,-0.55532 0,-0.72617 0,-1c0,-0.27383 0,-0.65065 0,-1c0,-0.34935 0,-0.67124 0,-1c0,-0.32876 0,-0.66438 0,-1c0,-0.33562 0,-0.66781 0,-1" stroke="#ee5421"/><path d="M252,528c0,0.43139 0,0.86277 0,1c0,0.13723 -0.00001,-0.0197 0,0c0.00001,0.0197 0.00002,0.21602 0,1c-0.00002,0.78398 -0.00008,2.15564 0,3c0.00008,0.84436 0.00031,1.16144 0,2c-0.00031,0.83856 -0.00117,2.1986 0,4c0.00117,1.8014 0.00435,4.04417 0,7c-0.00435,2.95583 -0.01624,6.62474 0,10c0.01624,3.37526 0.06063,6.45687 0,9c-0.06063,2.54313 -0.22626,4.54778 0,6c0.22626,1.45222 0.84442,2.35202 1,4c0.15558,1.64798 -0.15141,4.04413 0,5c0.15141,0.95587 0.76123,0.47145 1,1c0.23877,0.52855 0.10649,2.07006 0,3c-0.10649,0.92994 -0.18721,1.24831 0,2c0.18721,0.75169 0.64234,1.93669 1,4c0.35766,2.06331 0.61785,5.00494 1,7c0.38215,1.99506 0.88627,3.04355 1,4c0.11373,0.95645 -0.16292,1.82085 0,3c0.16292,1.17915 0.76541,2.67303 1,4c0.23459,1.32697 0.10128,2.48702 0,3c-0.10128,0.51298 -0.17053,0.37887 0,1c0.17053,0.62113 0.58085,1.99749 1,3c0.41915,1.00251 0.84714,1.63116 1,2c0.15286,0.36884 0.03058,0.47788 0,1c-0.03058,0.52212 0.03054,1.45732 0,2c-0.03054,0.54268 -0.15275,0.69285 0,1c0.15275,0.30715 0.58046,0.7713 1,2c0.41954,1.2287 0.83092,3.22196 1,4c0.16908,0.77804 0.09586,0.34086 0,1c-0.09586,0.65914 -0.21435,2.41461 0,4c0.21435,1.58539 0.76153,3.0007 1,4c0.23847,0.9993 0.16823,1.58259 0,2c-0.16823,0.41741 -0.43447,0.66893 0,2c0.43447,1.33107 1.56963,3.74168 2,5c0.43037,1.25832 0.15595,1.36435 0,2c-0.15595,0.63565 -0.19343,1.8009 0,3c0.19343,1.1991 0.61779,2.43203 1,3c0.38221,0.56797 0.72228,0.47098 1,1c0.27772,0.52902 0.49308,1.68406 1,3c0.50692,1.31594 1.30542,2.79277 2,4c0.69458,1.20723 1.28526,2.14487 2,3c0.71474,0.85513 1.55353,1.62774 2,2c0.44647,0.37226 0.50063,0.34418 1,1c0.49937,0.65582 1.44395,1.99555 2,3c0.55605,1.00445 0.72358,1.67364 1,2c0.27642,0.32636 0.66173,0.30991 2,1c1.33827,0.69009 3.6295,2.08674 5,3c1.3705,0.91326 1.82025,1.34313 3,2c1.17975,0.65687 3.08948,1.54074 4,2c0.91052,0.45926 0.82183,0.49393 2,1c1.17817,0.50607 3.62321,1.48356 5,2c1.37679,0.51644 1.68534,0.57185 3,1c1.31466,0.42815 3.63544,1.22903 6,2c2.36456,0.77097 4.7729,1.51201 6,2c1.2271,0.48799 1.27296,0.72293 2,1c0.72704,0.27707 2.13525,0.59625 3,1c0.86475,0.40375 1.18603,0.89205 2,1c0.81397,0.10795 2.12063,-0.16447 3,0c0.87937,0.16447 1.33144,0.76581 3,1c1.66856,0.23419 4.55361,0.10123 6,0c1.44639,-0.10123 1.45412,-0.17072 3,0c1.54588,0.17072 4.62993,0.58165 6,1c1.37007,0.41835 1.02617,0.84413 3,1c1.97383,0.15587 6.26538,0.04182 8,0c1.73462,-0.04182 0.91232,-0.01142 3,0c2.08768,0.01142 7.08536,0.00386 10,0c2.91464,-0.00386 3.74624,-0.00402 5,0c1.25376,0.00402 2.92967,0.0122 4,0c1.07033,-0.0122 1.53509,-0.04479 2,0c0.46491,0.04479 0.92996,0.16697 2,0c1.07004,-0.16697 2.74506,-0.62308 4,-1c1.25494,-0.37692 2.08981,-0.67465 3,-1c0.91019,-0.32535 1.89572,-0.67832 3,-1c1.10428,-0.32168 2.32731,-0.61207 3,-1c0.67269,-0.38793 0.79502,-0.87341 1,-1c0.20498,-0.12659 0.4926,0.1057 1,0c0.5074,-0.1057 1.2346,-0.54938 2,-1c0.7654,-0.45062 1.56902,-0.90818 2,-1c0.43098,-0.09182 0.48933,0.1821 1,0c0.51067,-0.1821 1.47365,-0.8202 2,-1c0.52635,-0.1798 0.61605,0.09871 1,0c0.38395,-0.09871 1.06215,-0.57465 2,-1c0.93785,-0.42535 2.13536,-0.80012 3,-1c0.86464,-0.19988 1.39642,-0.22488 2,-1c0.60358,-0.77512 1.27894,-2.30035 2,-3c0.72106,-0.69965 1.4878,-0.5737 2,-1c0.5122,-0.4263 0.76986,-1.40485 1,-2c0.23014,-0.59515 0.43275,-0.8069 1,-1c0.56725,-0.1931 1.49915,-0.36754 2,-1c0.50085,-0.63246 0.57065,-1.72295 1,-3c0.42935,-1.27705 1.21826,-2.74066 2,-4c0.78174,-1.25934 1.55633,-2.31442 2,-3c0.44367,-0.68558 0.55643,-1.00166 1,-2c0.44357,-0.99834 1.21795,-2.67893 2,-4c0.78205,-1.32107 1.57178,-2.28261 2,-3c0.42822,-0.71739 0.49492,-1.19061 1,-2c0.50508,-0.80939 1.44855,-1.95493 2,-3c0.55145,-1.04507 0.71089,-1.98966 1,-3c0.28911,-1.01034 0.7079,-2.08644 1,-3c0.2921,-0.91356 0.45749,-1.6646 1,-3c0.54251,-1.3354 1.46212,-3.25517 2,-5c0.53788,-1.74483 0.69403,-3.31473 1,-4c0.30597,-0.68527 0.76177,-0.48591 1,-1c0.23823,-0.51409 0.2589,-1.74164 1,-5c0.7411,-3.25836 2.20264,-8.54753 3,-11c0.79736,-2.45247 0.93053,-2.06825 1,-3c0.06947,-0.93175 0.07523,-3.17947 0,-4c-0.07523,-0.82053 -0.23146,-0.21388 0,-1c0.23146,-0.78612 0.8506,-2.965 1,-4c0.1494,-1.035 -0.17094,-0.92613 0,-2c0.17094,-1.07387 0.83318,-3.33047 1,-5c0.16682,-1.66953 -0.16177,-2.75198 0,-4c0.16177,-1.24802 0.81389,-2.66161 1,-4c0.18611,-1.33839 -0.09378,-2.60159 0,-4c0.09378,-1.39841 0.56122,-2.93203 1,-4c0.43878,-1.06797 0.84888,-1.67029 1,-3c0.15112,-1.32971 0.04325,-3.38681 0,-5c-0.04325,-1.61319 -0.0219,-2.78248 0,-4c0.0219,-1.21752 0.04434,-2.48328 0,-4c-0.04434,-1.51672 -0.15545,-3.2844 0,-5c0.15545,-1.7156 0.57748,-3.37911 1,-5c0.42252,-1.62089 0.84553,-3.19917 1,-4c0.15447,-0.80083 0.04039,-0.8242 0,-2c-0.04039,-1.1758 -0.0071,-3.50403 0,-5c0.0071,-1.49597 -0.01198,-2.15967 0,-3c0.01198,-0.84033 0.05502,-1.85729 0,-3c-0.05502,-1.14271 -0.20811,-2.41117 0,-3c0.20811,-0.58883 0.77743,-0.49804 1,-2c0.22257,-1.50196 0.09838,-4.59668 0,-6c-0.09838,-1.40332 -0.17097,-1.11523 0,-2c0.17097,-0.88477 0.58548,-2.94238 1,-5c0.41452,-2.05762 0.70726,-2.02881 1,-2" stroke="#ee5421"/><path d="M266,651c-1.31167,0.02363 -2.62335,0.04725 -3,0c-0.37665,-0.04725 0.18171,-0.16539 0,0c-0.18171,0.16539 -1.10351,0.61431 -2,1c-0.89649,0.38569 -1.76767,0.70814 -3,1c-1.23233,0.29186 -2.8258,0.55313 -4,1c-1.1742,0.44687 -1.92913,1.07935 -3,2c-1.07087,0.92065 -2.4577,2.12946 -4,3c-1.5423,0.87054 -3.24009,1.40282 -4,2c-0.75991,0.59718 -0.58194,1.25928 -1,2c-0.41806,0.74072 -1.43215,1.56008 -2,2c-0.56785,0.43992 -0.68945,0.50041 -1,2c-0.31055,1.49959 -0.81003,4.43826 -1,6c-0.18997,1.56174 -0.07043,1.74653 0,2c0.07043,0.25347 0.09175,0.57563 0,1c-0.09175,0.42437 -0.29655,0.95095 0,2c0.29655,1.04905 1.09447,2.62058 1,3c-0.09447,0.37942 -1.08132,-0.43327 0,1c1.08132,1.43327 4.23083,5.11248 6,7c1.76917,1.88752 2.15802,1.98334 3,3c0.84198,1.01666 2.13711,2.95416 3,4c0.86289,1.04584 1.29356,1.20001 3,2c1.70644,0.79999 4.68865,2.24579 6,3c1.31135,0.75421 0.95184,0.81681 4,2c3.04816,1.18319 9.50398,3.48696 15,5c5.49602,1.51304 10.03224,2.23534 14,3c3.96776,0.76466 7.36707,1.57169 11,2c3.63293,0.42831 7.4995,0.47789 11,1c3.5005,0.52211 6.63495,1.51674 10,2c3.36505,0.48326 6.96071,0.45515 10,1c3.03929,0.54485 5.52219,1.66267 8,2c2.47781,0.33733 4.95051,-0.10581 8,0c3.04949,0.10581 6.67576,0.76059 11,1c4.32424,0.23941 9.34644,0.06347 13,0c3.65356,-0.06347 5.93848,-0.01445 9,0c3.06152,0.01445 6.89964,-0.00565 10,0c3.10036,0.00565 5.46296,0.03707 9,0c3.53704,-0.03707 8.24853,-0.14264 11,0c2.75147,0.14264 3.54292,0.53347 5,0c1.45708,-0.53347 3.5798,-1.99125 6,-3c2.4202,-1.00875 5.13789,-1.56847 7,-2c1.86211,-0.43153 2.86863,-0.73485 4,-1c1.13137,-0.26515 2.38757,-0.49212 3,-1c0.61243,-0.50788 0.58107,-1.29668 1,-2c0.41893,-0.70332 1.28816,-1.32117 2,-2c0.71184,-0.67883 1.26631,-1.41866 2,-3c0.73369,-1.58134 1.6466,-4.0042 2,-5c0.3534,-0.9958 0.1473,-0.56456 0,-1c-0.1473,-0.43544 -0.23581,-1.73757 0,-3c0.23581,-1.26243 0.79594,-2.48515 1,-3c0.20406,-0.51485 0.05204,-0.32184 0,-1c-0.05204,-0.67816 -0.00411,-2.22749 0,-3c0.00411,-0.77251 -0.03561,-0.76819 0,-1c0.03561,-0.23181 0.14654,-0.69976 0,-1c-0.14654,-0.30024 -0.55057,-0.43277 -1,-1c-0.44943,-0.56723 -0.94427,-1.56917 -1,-2c-0.05573,-0.43083 0.32764,-0.29054 0,-1c-0.32764,-0.70946 -1.36629,-2.26867 -2,-3c-0.63371,-0.73133 -0.86247,-0.63476 -1,-1c-0.13753,-0.36524 -0.18382,-1.19227 -1,-2c-0.81618,-0.80773 -2.40226,-1.59615 -3,-2c-0.59774,-0.40385 -0.20713,-0.42313 -1,-1c-0.79287,-0.57687 -2.76922,-1.71133 -4,-2c-1.23078,-0.28867 -1.71598,0.26843 -3,0c-1.28402,-0.26843 -3.36686,-1.36241 -5,-2c-1.63314,-0.63759 -2.81657,-0.8188 -4,-1c-1.18343,-0.1812 -1.59172,-0.5906 -2,-1" stroke="#ee5421"/><path d="M319,478c-0.4484,-0.55025 -0.8968,-1.10049 -1,-1c-0.1032,0.10049 0.13879,0.85172 0,0c-0.13879,-0.85172 -0.65834,-3.3064 -1,-6c-0.34166,-2.6936 -0.50541,-5.62613 -1,-9c-0.49459,-3.37387 -1.32003,-7.18907 -2,-10c-0.67997,-2.81093 -1.21447,-4.61757 -2,-9c-0.78553,-4.38243 -1.82208,-11.34063 -2,-14c-0.17792,-2.65937 0.50278,-1.01989 0,-4c-0.50278,-2.98011 -2.18903,-10.5798 -3,-15c-0.81097,-4.4202 -0.74666,-5.6609 -1,-7c-0.25334,-1.3391 -0.82433,-2.77659 -1,-7c-0.17567,-4.22341 0.04396,-11.23273 0,-14c-0.04396,-2.76727 -0.35153,-1.29248 -1,-4c-0.64847,-2.70752 -1.63786,-9.59734 -2,-13c-0.36214,-3.40266 -0.09704,-3.31816 0,-5c0.09704,-1.68184 0.026,-5.13003 0,-8c-0.026,-2.86997 -0.00697,-5.16172 0,-8c0.00697,-2.83828 0.00187,-6.22309 0,-10c-0.00187,-3.77691 -0.0005,-7.94592 0,-11c0.0005,-3.05408 0.00013,-4.99324 0,-9c-0.00013,-4.00676 -0.00004,-10.08113 0,-14c0.00004,-3.91887 0.00001,-5.68223 0,-8c-0.00001,-2.31777 0,-5.18993 0,-8c0,-2.81007 0,-5.55803 0,-9c0,-3.44197 0,-7.57793 0,-10c0,-2.42207 0,-3.13023 0,-5c0,-1.86977 0,-4.90115 0,-7c0,-2.09885 0.00001,-3.26517 0,-5c-0.00001,-1.73483 -0.00005,-4.03817 0,-6c0.00005,-1.96183 0.00017,-3.58217 0,-6c-0.00017,-2.41783 -0.00064,-5.63316 0,-8c0.00064,-2.36684 0.0024,-3.88518 0,-5c-0.0024,-1.11482 -0.00897,-1.82611 0,-3c0.00897,-1.17389 0.03348,-2.81037 0,-4c-0.03348,-1.18963 -0.12494,-1.93241 0,-3c0.12494,-1.06759 0.46627,-2.46 1,-4c0.53373,-1.54 1.25987,-3.2276 2,-5c0.74013,-1.7724 1.49426,-3.6296 2,-5c0.50574,-1.3704 0.76308,-2.25401 1,-3c0.23692,-0.74599 0.45342,-1.35438 1,-2c0.54658,-0.64562 1.42323,-1.32849 2,-2c0.57677,-0.67151 0.85366,-1.33165 1,-2c0.14634,-0.66835 0.16214,-1.34489 1,-2c0.83786,-0.65511 2.49778,-1.28879 4,-2c1.50222,-0.71121 2.84675,-1.49995 4,-2c1.15325,-0.50005 2.11522,-0.71142 3,-1c0.88478,-0.28858 1.69236,-0.65439 2,-1c0.30764,-0.34561 0.11535,-0.67102 1,-1c0.88465,-0.32898 2.84623,-0.66151 4,-1c1.15377,-0.33849 1.49971,-0.68293 3,-1c1.50029,-0.31707 4.15492,-0.60677 6,-1c1.84508,-0.39323 2.88062,-0.88997 4,-1c1.11938,-0.11003 2.32261,0.16667 3,0c0.67739,-0.16667 0.82893,-0.77671 2,-1c1.17107,-0.22329 3.36168,-0.05984 6,0c2.63832,0.05984 5.72437,0.01605 9,0c3.27563,-0.01605 6.74085,-0.00437 10,0c3.25915,0.00437 6.31222,0.00142 9,0c2.68778,-0.00142 5.01028,-0.00131 6,0c0.98972,0.00131 0.64666,0.00381 1,0c0.35334,-0.00381 1.40307,-0.01393 2,0c0.59693,0.01393 0.74107,0.05189 1,0c0.25893,-0.05189 0.63265,-0.19365 1,0c0.36735,0.19365 0.72835,0.72271 1,1c0.27165,0.27729 0.45397,0.30283 1,1c0.54603,0.69717 1.45577,2.06599 2,3c0.54423,0.93401 0.72296,1.43323 1,3c0.27704,1.56677 0.65238,4.20111 1,6c0.34762,1.79889 0.66752,2.76234 1,4c0.33248,1.23766 0.67755,2.74954 1,4c0.32245,1.25046 0.6223,2.23949 1,4c0.3777,1.76051 0.83326,4.2925 1,5c0.16674,0.7075 0.04468,-0.40951 0,1c-0.04468,1.40951 -0.01197,5.34552 0,9c0.01197,3.65448 0.00319,7.02742 0,10c-0.00319,2.97258 -0.00078,5.5448 0,9c0.00078,3.4552 -0.00006,7.79338 0,11c0.00006,3.20662 0.00103,5.28167 0,7c-0.00103,1.71833 -0.00407,3.07993 0,5c0.00407,1.92007 0.01524,4.39862 0,7c-0.01524,2.60138 -0.05688,5.32561 0,9c0.05688,3.67439 0.21227,8.29895 0,13c-0.21227,4.70105 -0.79219,9.47858 -1,13c-0.20781,3.52142 -0.04349,5.78672 0,8c0.04349,2.21328 -0.03384,4.37455 0,6c0.03384,1.62545 0.17886,2.71508 0,5c-0.17886,2.28492 -0.6816,5.76512 -1,8c-0.3184,2.23488 -0.45245,3.22442 -1,7c-0.54755,3.77558 -1.50861,10.33719 -2,15c-0.49139,4.66281 -0.51311,7.42683 -1,11c-0.48689,3.57317 -1.43894,7.9555 -2,11c-0.56106,3.0445 -0.73111,4.75117 -1,7c-0.26889,2.24883 -0.6366,5.03981 -1,7c-0.3634,1.96019 -0.72248,3.08957 -1,5c-0.27752,1.91043 -0.47347,4.6019 -1,7c-0.52653,2.3981 -1.38363,4.50283 -2,7c-0.61637,2.49717 -0.99201,5.38677 -1,8c-0.00799,2.61323 0.35167,4.95007 0,8c-0.35167,3.04993 -1.41466,6.81293 -2,10c-0.58534,3.18707 -0.69303,5.79821 -1,8c-0.30697,2.20179 -0.81322,3.99425 -1,5c-0.18678,1.00575 -0.05409,1.22481 0,2c0.05409,0.77519 0.02959,2.1065 0,3c-0.02959,0.8935 -0.06426,1.34918 0,3c0.06426,1.65082 0.22745,4.49679 0,6c-0.22745,1.50321 -0.84556,1.66367 -1,2c-0.15444,0.33633 0.15477,0.84853 0,2c-0.15477,1.15147 -0.77352,2.94222 -1,4c-0.22648,1.05778 -0.06068,1.3826 0,2c0.06068,0.6174 0.01626,1.52737 0,2c-0.01626,0.47263 -0.00436,0.50792 0,1c0.00436,0.49208 0.00117,1.44095 0,2c-0.00117,0.55905 -0.00031,0.72828 0,1c0.00031,0.27172 0.00009,0.64593 0,1c-0.00009,0.35407 -0.00005,0.68799 0,1c0.00005,0.31201 0.00011,0.6021 0,1c-0.00011,0.3979 -0.00037,0.9036 0,1c0.00037,0.0964 0.00138,-0.21652 0,-1c-0.00138,-0.78348 -0.00516,-2.03753 0,-4c0.00516,-1.96247 0.01925,-4.63337 0,-8c-0.01925,-3.36663 -0.07183,-7.42899 0,-11c0.07183,-3.57101 0.26808,-6.65066 1,-11c0.73192,-4.34934 1.99952,-9.96839 3,-15c1.00048,-5.03161 1.73383,-9.4758 3,-16c1.26617,-6.5242 3.06516,-15.1284 4,-22c0.93484,-6.8716 1.00551,-12.01058 2,-17c0.99449,-4.98942 2.91278,-9.82928 4,-14c1.08722,-4.17072 1.34335,-7.6723 2,-10c0.65665,-2.3277 1.71381,-3.48152 2,-6c0.28619,-2.51848 -0.1986,-6.40161 0,-9c0.1986,-2.59839 1.08059,-3.91205 2,-6c0.91941,-2.08795 1.87622,-4.95018 2,-8c0.12378,-3.04982 -0.58548,-6.28724 0,-9c0.58548,-2.71276 2.46572,-4.90086 3,-6c0.53428,-1.09914 -0.27738,-1.10933 0,-6c0.27738,-4.89067 1.64381,-14.66182 2,-19c0.35619,-4.33818 -0.29788,-3.24338 0,-4c0.29788,-0.75662 1.54769,-3.36464 2,-5c0.45231,-1.63536 0.10711,-2.29804 0,-4c-0.10711,-1.70196 0.02386,-4.44319 0,-6c-0.02386,-1.55681 -0.20255,-1.9292 0,-3c0.20255,-1.0708 0.78632,-2.83999 1,-4c0.21368,-1.16001 0.05725,-1.71082 0,-3c-0.05725,-1.28918 -0.01533,-3.31672 0,-5c0.01533,-1.68328 0.00408,-3.02231 0,-4c-0.00408,-0.97769 -0.00097,-1.59403 0,-3c0.00097,-1.40597 -0.00019,-3.60157 0,-5c0.00019,-1.39843 0.00175,-1.99968 0,-3c-0.00175,-1.00032 -0.0068,-2.39971 0,-3c0.0068,-0.60029 0.02544,-0.40149 0,-1c-0.02544,-0.59851 -0.09498,-1.99435 0,-3c0.09498,-1.00565 0.35446,-1.62113 0,-3c-0.35446,-1.37887 -1.32286,-3.52114 -2,-5c-0.67714,-1.47886 -1.06302,-2.29431 -1,-3c0.06302,-0.70569 0.57492,-1.30163 0,-2c-0.57492,-0.69837 -2.23668,-1.49916 -3,-3c-0.76332,-1.50084 -0.62821,-3.70172 -1,-5c-0.37179,-1.29828 -1.25047,-1.69397 -2,-3c-0.74953,-1.30603 -1.36992,-3.52241 -2,-5c-0.63008,-1.47759 -1.26985,-2.21637 -2,-3c-0.73015,-0.78363 -1.55068,-1.61209 -2,-2c-0.44932,-0.38791 -0.52744,-0.33526 -1,-1c-0.47256,-0.66474 -1.33957,-2.04687 -2,-3c-0.66043,-0.95313 -1.1143,-1.47724 -2,-2c-0.8857,-0.52276 -2.20325,-1.04415 -3,-2c-0.79675,-0.95585 -1.0727,-2.34614 -2,-3c-0.9273,-0.65386 -2.50596,-0.57128 -4,-1c-1.49404,-0.42872 -2.90346,-1.36874 -4,-2c-1.09654,-0.63126 -1.88019,-0.95375 -3,-1c-1.11981,-0.04625 -2.57578,0.18375 -5,0c-2.42422,-0.18375 -5.81669,-0.78127 -8,-1c-2.18331,-0.21873 -3.15747,-0.05869 -5,0c-1.84253,0.05869 -4.55345,0.01603 -7,0c-2.44655,-0.01603 -4.62875,-0.00541 -6,0c-1.37125,0.00541 -1.93155,0.00563 -3,0c-1.06845,-0.00563 -2.64505,-0.01712 -4,0c-1.35495,0.01712 -2.48824,0.06284 -3,0c-0.51176,-0.06284 -0.402,-0.23426 -1,0c-0.598,0.23426 -1.90377,0.87419 -3,1c-1.09623,0.12581 -1.9829,-0.2625 -3,0c-1.0171,0.2625 -2.16461,1.1758 -3,2c-0.83539,0.8242 -1.35865,1.55931 -2,2c-0.64135,0.44069 -1.40078,0.58697 -2,1c-0.59922,0.41303 -1.03823,1.0928 -2,3c-0.96177,1.9072 -2.44631,5.04183 -4,8c-1.55369,2.95817 -3.17652,5.73988 -5,9c-1.82348,3.26012 -3.84759,6.99864 -5,10c-1.15241,3.00136 -1.4331,5.26556 -2,7c-0.5669,1.73444 -1.41999,2.93913 -2,4c-0.58001,1.06087 -0.88692,1.97793 -1,4c-0.11308,2.02207 -0.03231,5.14916 0,7c0.03231,1.85084 0.01615,2.42542 0,3c-0.01615,0.57458 -0.00808,1.78729 0,3" stroke="#83af3b"/><path d="M371,472c-0.02127,-0.83612 -0.04253,-1.67224 0,-2c0.04253,-0.32776 0.14887,-0.14717 0,0c-0.14887,0.14717 -0.55293,0.26092 0,-2c0.55293,-2.26092 2.06287,-6.89649 3,-11c0.93713,-4.10351 1.30147,-7.67494 2,-13c0.69853,-5.32506 1.73125,-12.40374 4,-21c2.26875,-8.59626 5.77352,-18.71009 8,-26c2.22648,-7.28991 3.17465,-11.75588 4,-16c0.82535,-4.24412 1.52786,-8.26638 2,-14c0.47214,-5.73362 0.7139,-13.17862 1,-19c0.2861,-5.82138 0.61652,-10.01916 1,-16c0.38348,-5.98084 0.82,-13.74476 1,-20c0.18,-6.25524 0.10348,-11.00181 0,-17c-0.10348,-5.99819 -0.23392,-13.24799 0,-18c0.23392,-4.75201 0.83219,-7.00624 1,-11c0.16781,-3.99376 -0.09486,-9.72706 0,-15c0.09486,-5.27294 0.54723,-10.08552 1,-14c0.45277,-3.91448 0.90593,-6.93085 1,-13c0.09407,-6.06915 -0.17096,-15.19107 0,-20c0.17096,-4.80893 0.7779,-5.30487 1,-6c0.2221,-0.69513 0.05937,-1.58945 0,-3c-0.05937,-1.41055 -0.01538,-3.33732 0,-5c0.01538,-1.66268 0.00215,-3.06127 0,-4c-0.00215,-0.93873 0.00679,-1.41758 0,-2c-0.00679,-0.58242 -0.02929,-1.26839 0,-2c0.02929,-0.73161 0.11038,-1.50885 0,-2c-0.11038,-0.49115 -0.41224,-0.69621 -1,-1c-0.58776,-0.30379 -1.46142,-0.70631 -2,-1c-0.53858,-0.29369 -0.74206,-0.47855 -2,-1c-1.25794,-0.52145 -3.57033,-1.3795 -5,-2c-1.42967,-0.6205 -1.97663,-1.00344 -3,-1c-1.02337,0.00344 -2.52314,0.39326 -4,0c-1.47686,-0.39326 -2.93081,-1.56959 -4,-2c-1.06919,-0.43041 -1.75362,-0.11489 -4,0c-2.24638,0.11489 -6.05471,0.02916 -9,0c-2.94529,-0.02916 -5.02755,-0.00173 -7,0c-1.97245,0.00173 -3.8351,-0.02223 -6,0c-2.1649,0.02223 -4.63205,0.09064 -6,0c-1.36795,-0.09064 -1.63671,-0.34035 -3,0c-1.36329,0.34035 -3.8211,1.27076 -5,2c-1.1789,0.72924 -1.07888,1.25732 -2,2c-0.92112,0.74268 -2.86338,1.69995 -4,2c-1.13662,0.30005 -1.46761,-0.05713 -2,0c-0.53239,0.05713 -1.2662,0.52856 -2,1c-0.7338,0.47144 -0.8669,0.73572 -1,1" stroke="#69b664"/><path d="M348,465c-0.00813,-0.47205 -0.01626,-0.94409 0,-1c0.01626,-0.05591 0.05693,0.30432 0,0c-0.05693,-0.30432 -0.21144,-1.27318 0,-2c0.21144,-0.72682 0.78882,-1.21161 1,-2c0.21118,-0.78839 0.05615,-1.88039 0,-5c-0.05615,-3.11961 -0.01344,-8.26684 0,-13c0.01344,-4.73316 -0.0024,-9.05224 0,-11c0.0024,-1.94776 0.02304,-1.52419 0,-4c-0.02304,-2.47581 -0.08975,-7.85099 0,-15c0.08975,-7.14901 0.33595,-16.07184 0,-23c-0.33595,-6.92816 -1.25406,-11.86163 -2,-16c-0.74594,-4.13837 -1.31972,-7.48163 -2,-15c-0.68028,-7.51837 -1.46708,-19.21184 -2,-25c-0.53292,-5.78816 -0.81198,-5.671 -1,-8c-0.18802,-2.329 -0.28501,-7.10417 -1,-11c-0.71499,-3.89583 -2.04799,-6.91234 -3,-10c-0.95201,-3.08766 -1.52302,-6.24649 -2,-9c-0.47698,-2.75351 -0.85993,-5.10172 -1,-6c-0.14007,-0.89828 -0.03725,-0.34665 0,-2c0.03725,-1.65335 0.00893,-5.51169 0,-8c-0.00893,-2.48831 0.00154,-3.60661 0,-5c-0.00154,-1.39339 -0.0151,-3.06188 0,-5c0.0151,-1.93812 0.05887,-4.14587 0,-6c-0.05887,-1.85413 -0.22038,-3.35466 0,-5c0.22038,-1.64534 0.82264,-3.43551 1,-5c0.17736,-1.56449 -0.07017,-2.90329 0,-4c0.07017,-1.09671 0.45803,-1.95133 1,-3c0.54197,-1.04867 1.23805,-2.2914 2,-4c0.76195,-1.7086 1.58975,-3.88309 2,-5c0.41025,-1.11691 0.40293,-1.17626 1,-3c0.59707,-1.82374 1.79854,-5.41187 3,-9c1.20146,-3.58813 1.60073,-6.79407 2,-10" stroke="#69b664"/><path d="M373,301c-0.42265,-1.20427 -0.8453,-2.40855 -1,-2c-0.1547,0.40855 -0.04145,2.42991 0,0c0.04145,-2.42991 0.01111,-9.31111 0,-16c-0.01111,-6.68889 -0.00299,-13.18547 0,-21c0.00299,-7.81453 0.00085,-16.94701 0,-25c-0.00085,-8.05299 -0.00043,-15.0265 0,-22c0.00043,-6.9735 0.00021,-7.48675 0,-8" stroke="#69b664"/><path d="M419,291c0.55556,0 1.11111,0 1,0c-0.11111,0 -0.88889,0 0,0c0.88889,0 3.44444,0 6,0c2.55556,0 9.27778,-1 16,-2" stroke="#49b8a5"/><path d="M389,342c0.00595,0.47024 0.0119,0.94048 0,1c-0.0119,0.05952 -0.04167,-0.29167 0,0c0.04167,0.29167 0.15476,1.22619 1,2c0.84524,0.77381 2.42262,1.3869 4,2c1.57738,0.6131 2.28869,0.80655 3,1" stroke="#49b8a5"/><path d="M302,366c-0.62041,0 -1.24083,0 -1,0c0.24083,0 1.3429,0 0,0c-1.3429,0 -5.13078,0 -8,0c-2.86922,0 -4.81978,0 -7,0c-2.18022,0 -4.59011,0 -7,0c-2.40989,0 -1.70494,0 -1,0" stroke="#49b8a5"/><path d="M328,287c-0.0235,-0.52949 -0.04701,-1.05897 0,-1c0.04701,0.05897 0.16453,0.70641 0,0c-0.16453,-0.70641 -0.61111,-2.76667 -2,-5c-1.38889,-2.23333 -3.72009,-4.63974 -5,-6c-1.27991,-1.36026 -1.50855,-1.67436 -3,-3c-1.49145,-1.32564 -4.24573,-3.66282 -7,-6c-2.75427,-2.33718 -2.87714,-2.66859 -3,-3" stroke="#49b8a5"/><path d="M322,205c0,-2.66667 0,-5.33333 0,-6c0,-0.66667 0,0.66667 0,0c0,-0.66667 0,-3.33333 0,-5c0,-1.66667 0,-2.33333 0,-3c0,-0.66667 0,-0.83333 0,-1" stroke="#49b8a5"/><path d="M350,163c0.42222,-0.02222 0.84444,-0.04444 1,0c0.15556,0.04444 0.04444,0.15556 0,0c-0.04444,-0.15556 -0.02222,-0.57778 0,-1c0.02222,-0.42222 0.51111,-0.71111 1,-1" stroke="#49b8a5"/><path d="M359,197c0.02222,-0.48889 0.04444,-0.97778 0,-1c-0.04444,-0.02222 -0.15556,0.42222 0,0c0.15556,-0.42222 0.57778,-1.71111 1,-3c0.42222,-1.28889 2.21111,-3.64444 4,-6" stroke="#49b8a5"/><path d="M389,426c0.00319,0.42265 0.00638,0.8453 0,1c-0.00638,0.1547 -0.02233,0.04147 0,0c0.02233,-0.04147 0.08293,-0.01116 1,0c0.91707,0.01116 2.69059,0.00319 5,0c2.30941,-0.00319 5.1547,-0.00159 8,0c2.8453,0.00159 2.92265,0.5008 3,1" stroke="#49b8a5"/><path d="M367,439c0.41667,0 0.83333,0 1,0c0.16667,0 0.08333,0 0,0c-0.08333,0 2.45833,0 5,0" stroke="#49b8a5"/><path d="M398,544c0.42913,0.21105 0.85825,0.4221 1,0c0.14175,-0.4221 -0.00388,-1.47735 0,0c0.00388,1.47735 0.15727,5.48729 0,11c-0.15727,5.51271 -0.62521,12.5282 -3,21c-2.37479,8.4718 -6.65644,18.3999 -10,28c-3.34356,9.6001 -5.74903,18.8722 -8,27c-2.25097,8.1278 -4.34745,15.11131 -5,20c-0.65255,4.88869 0.13882,7.68257 0,9c-0.13882,1.31743 -1.20782,1.15843 -2,3c-0.79218,1.84157 -1.30755,5.68372 -2,8c-0.69245,2.31628 -1.56199,3.10669 -2,4c-0.43801,0.89331 -0.44451,1.88954 -1,3c-0.55549,1.11046 -1.65998,2.33517 -2,3c-0.34002,0.66483 0.08442,0.76977 0,1c-0.08442,0.23023 -0.67769,0.58575 -1,1c-0.32231,0.41425 -0.37366,0.88724 0,1c0.37366,0.11276 1.17232,-0.13473 -1,0c-2.17232,0.13473 -7.31562,0.65166 -11,1c-3.68438,0.34834 -5.90982,0.5281 -8,1c-2.09018,0.4719 -4.04509,1.23595 -6,2c-1.95491,0.76405 -2.97746,1.38202 -4,2" stroke="#b77848"/><path d="M310,444c-0.93823,-0.00221 -1.87647,-0.00442 -2,0c-0.12353,0.00442 0.56763,0.01546 0,0c-0.56763,-0.01546 -2.39406,-0.05743 -4,0c-1.60594,0.05743 -2.99139,0.21425 -5,0c-2.00861,-0.21425 -4.64037,-0.79956 -8,0c-3.35963,0.79956 -7.44712,2.98399 -11,4c-3.55288,1.01601 -6.57115,0.8636 -10,2c-3.42885,1.1364 -7.26827,3.56161 -11,5c-3.73173,1.43839 -7.35577,1.88994 -9,2c-1.64423,0.11006 -1.30865,-0.12138 -2,0c-0.69135,0.12138 -2.40963,0.59558 -3,1c-0.59037,0.40442 -0.05283,0.73905 0,1c0.05283,0.26095 -0.37906,0.44821 -1,1c-0.62094,0.55179 -1.43092,1.46812 -2,2c-0.56908,0.53188 -0.89726,0.67932 -1,1c-0.10274,0.32068 0.01995,0.81461 0,1c-0.01995,0.18539 -0.18255,0.06223 0,1c0.18255,0.93777 0.71025,2.93647 1,4c0.28975,1.06353 0.34157,1.19191 1,2c0.65843,0.80809 1.92348,2.29591 3,3c1.07652,0.70409 1.9645,0.62445 3,1c1.0355,0.37555 2.21853,1.20631 4,2c1.78147,0.79369 4.16139,1.55033 6,2c1.83861,0.44967 3.13591,0.59238 5,1c1.86409,0.40762 4.29496,1.08014 8,2c3.70504,0.91986 8.68423,2.08705 13,3c4.31577,0.91295 7.96811,1.57167 13,2c5.03189,0.42833 11.44332,0.62627 19,2c7.55668,1.37373 16.25861,3.92323 23,5c6.74139,1.07677 11.52226,0.68079 20,1c8.47774,0.31921 20.65236,1.35362 30,2c9.34764,0.64638 15.8683,0.90475 22,1c6.1317,0.09525 11.87443,0.02739 17,0c5.12557,-0.02739 9.63399,-0.0143 16,0c6.36601,0.0143 14.58963,0.02982 20,0c5.41037,-0.02982 8.00751,-0.10497 10,0c1.99249,0.10497 3.38034,0.39008 5,0c1.61966,-0.39008 3.47113,-1.45535 4,-2c0.52887,-0.54465 -0.26487,-0.5687 0,-1c0.26487,-0.4313 1.58833,-1.26987 2,-2c0.41167,-0.73013 -0.08845,-1.35183 0,-2c0.08845,-0.64817 0.76549,-1.32283 1,-2c0.23451,-0.67717 0.02651,-1.35686 0,-2c-0.02651,-0.64314 0.12847,-1.24974 0,-2c-0.12847,-0.75026 -0.54039,-1.64419 -1,-3c-0.45961,-1.35581 -0.96691,-3.17351 -2,-5c-1.03309,-1.82649 -2.59196,-3.66175 -4,-5c-1.40804,-1.33825 -2.66526,-2.17947 -4,-3c-1.33474,-0.82053 -2.747,-1.62037 -5,-3c-2.253,-1.37963 -5.34674,-3.33906 -7,-4c-1.65326,-0.66094 -1.86604,-0.02339 -2,0c-0.13396,0.02339 -0.18912,-0.56738 -2,-1c-1.81088,-0.43262 -5.3775,-0.70708 -8,-1c-2.6225,-0.29292 -4.30088,-0.60429 -9,-2c-4.69912,-1.39571 -12.419,-3.87577 -19,-5c-6.581,-1.12423 -12.02314,-0.89264 -16,-1c-3.97686,-0.10736 -6.48843,-0.55368 -9,-1c-2.51157,-0.44632 -2.25579,-0.22316 -2,0" stroke="#b77848"/><path d="M448,463c-0.5091,0.48529 -1.01821,0.97057 -1,1c0.01821,0.02943 0.56372,-0.397 0,0c-0.56372,0.397 -2.23669,1.61743 -3,2c-0.76331,0.38257 -0.61697,-0.07271 -5,3c-4.38303,3.07271 -13.29543,9.67342 -18,13c-4.70457,3.32658 -5.20131,3.37902 -7,5c-1.79869,1.62098 -4.89935,4.81049 -8,8c-3.10065,3.18951 -2.05033,1.59476 -1,0" stroke="#b77848"/><path d="M427,457c-0.03817,-0.43093 -0.07634,-0.86187 0,-1c0.07634,-0.13813 0.26718,0.01654 0,0c-0.26718,-0.01654 -0.99239,-0.20428 -2,0c-1.00761,0.20428 -2.29762,0.8006 -4,2c-1.70238,1.1994 -3.81713,3.0019 -6,5c-2.18287,1.9981 -4.43385,4.1918 -7,6c-2.56615,1.8082 -5.44747,3.23092 -7,4c-1.55253,0.76908 -1.77626,0.88454 -2,1c-0.22374,0.11546 -0.61187,0.55773 -1,1" stroke="#b77848"/><path d="M412,454c-0.55343,0.11962 -1.10686,0.23923 -1,0c0.10686,-0.23923 0.874,-0.83732 0,0c-0.874,0.83732 -3.38915,3.11005 -6,5c-2.61085,1.88995 -5.31738,3.39713 -9,6c-3.68262,2.60287 -8.34131,6.30144 -13,10c-4.65869,3.69856 -5.32935,3.84928 -6,4" stroke="#b77848"/><path d="M327,471c-1.33174,0.87241 -2.66348,1.74482 -3,2c-0.33652,0.25518 0.32217,-0.10686 0,0c-0.32217,0.10686 -1.6252,0.68262 -4,2c-2.3748,1.31738 -5.82137,3.3764 -9,5c-3.17863,1.6236 -6.08931,2.8118 -9,4c-2.91069,1.1882 -2.95534,0.5941 -3,0" stroke="#b77848"/><path d="M299,475c-0.47521,-0.42308 -0.95043,-0.84615 -1,-1c-0.04957,-0.15385 0.3265,-0.03846 0,0c-0.3265,0.03846 -1.35556,0 -3,0c-1.64444,0 -3.90427,0.03846 -5,0c-1.09573,-0.03846 -1.02735,-0.15385 -2,0c-0.97265,0.15385 -2.98632,0.57692 -5,1c-2.01368,0.42308 -1.50684,0.21154 -1,0" stroke="#b77848"/><path d="M280,468c-0.47847,-0.01276 -0.95694,-0.02552 -1,0c-0.04306,0.02552 0.34928,0.08931 0,0c-0.34928,-0.08931 -1.44019,-0.33174 -2,0c-0.55981,0.33174 -0.58852,1.23764 -1,2c-0.41148,0.76236 -1.20574,1.38118 -2,2c-0.79426,0.61882 -0.89713,1.30941 -1,2" stroke="#b77848"/><path d="M299,248c-0.51375,0.00471 -1.0275,0.00942 -1,0c0.0275,-0.00942 0.59624,-0.03296 0,0c-0.59624,0.03296 -2.35747,0.12244 -4,0c-1.64253,-0.12244 -3.16637,-0.45679 -5,-1c-1.83363,-0.54321 -3.97704,-1.2953 -6,-2c-2.02296,-0.7047 -3.92547,-1.36203 -6,-2c-2.07453,-0.63797 -4.32108,-1.25658 -7,-3c-2.67892,-1.74342 -5.79023,-4.61164 -8,-6c-2.20977,-1.38836 -3.51802,-1.29687 -5,-2c-1.48198,-0.70313 -3.13771,-2.2009 -4,-3c-0.86229,-0.7991 -0.93115,-0.89955 -1,-1c-0.06885,-0.10045 -0.53443,-0.05022 -1,0" stroke="#70bd41"/><path d="M254,232c-0.85905,0.00929 -1.7181,0.01859 -2,0c-0.2819,-0.01859 0.01334,-0.06506 0,0c-0.01334,0.06506 -0.33524,0.24164 -1,0c-0.66476,-0.24164 -1.67236,-0.9015 -3,-1c-1.32764,-0.0985 -2.97533,0.36437 -5,0c-2.02467,-0.36437 -4.42634,-1.55596 -7,-2c-2.57366,-0.44404 -5.31931,-0.14051 -7,0c-1.68069,0.14051 -2.2964,0.11801 -3,0c-0.7036,-0.11801 -1.49507,-0.33153 -2,0c-0.50493,0.33153 -0.72333,1.20812 -1,2c-0.27667,0.79188 -0.61162,1.49907 -1,2c-0.38838,0.50093 -0.83018,0.7956 -1,1c-0.16982,0.2044 -0.06767,0.31851 0,1c0.06767,0.68149 0.10087,1.93034 0,3c-0.10087,1.06966 -0.33582,1.96012 0,3c0.33582,1.03988 1.2424,2.22919 2,3c0.7576,0.77081 1.36621,1.12312 2,2c0.63379,0.87688 1.29275,2.27835 2,3c0.70725,0.72165 1.46279,0.7635 2,1c0.53721,0.2365 0.85608,0.66766 1,1c0.14392,0.33234 0.11288,0.56585 1,1c0.88712,0.43415 2.6924,1.06893 4,2c1.3076,0.93107 2.11754,2.15845 3,3c0.88246,0.84155 1.83745,1.29729 4,2c2.16255,0.70271 5.53266,1.6524 8,2c2.46734,0.3476 4.03192,0.09311 6,0c1.96808,-0.09311 4.33967,-0.02483 9,0c4.66033,0.02483 11.60942,0.00622 16,0c4.39058,-0.00622 6.22266,-0.00003 8,0c1.77734,0.00003 3.49994,-0.00608 5,0c1.50006,0.00608 2.77759,0.02434 4,0c1.22241,-0.02434 2.38971,-0.09129 3,0c0.61029,0.09129 0.66356,0.34082 1,0c0.33644,-0.34082 0.95603,-1.272 2,-2c1.04397,-0.728 2.51231,-1.25284 3,-2c0.48769,-0.74716 -0.00526,-1.71666 0,-2c0.00526,-0.28334 0.50873,0.11948 1,0c0.49127,-0.11948 0.97035,-0.76125 1,-1c0.02965,-0.23875 -0.39014,-0.07448 -1,0c-0.60986,0.07448 -1.40978,0.05918 -2,0c-0.59022,-0.05918 -0.97072,-0.16223 -2,0c-1.02928,0.16223 -2.70733,0.58973 -4,1c-1.29267,0.41027 -2.19997,0.8033 -3,1c-0.80003,0.1967 -1.49279,0.19705 -2,0c-0.50721,-0.19705 -0.82886,-0.59151 -1,-1c-0.17114,-0.40849 -0.19175,-0.831 0,-1c0.19175,-0.169 0.59588,-0.0845 1,0c0.40412,0.0845 1.20206,0.54225 2,1" stroke="#70bd41"/><path d="M298,262c0.42222,-0.02222 0.84444,-0.04444 1,0c0.15556,0.04444 0.04444,0.15556 0,0c-0.04444,-0.15556 -0.02222,-0.57778 0,-1c0.02222,-0.42222 0.01111,-1.71111 0,-3" stroke="#70bd41"/><path d="M299,254c-0.46538,-0.00043 -0.93077,-0.00085 -1,0c-0.06923,0.00085 0.25769,0.00299 0,0c-0.25769,-0.00299 -1.1,-0.01111 -2,0c-0.9,0.01111 -1.85769,0.04145 -3,0c-1.14231,-0.04145 -2.46923,-0.1547 -4,-1c-1.53077,-0.8453 -3.26538,-2.42265 -5,-4c-1.73462,-1.57735 -1.36731,-0.78868 -1,0" stroke="#70bd41"/><path d="M312,256c0,-0.33333 0,-0.66667 0,-1c0,-0.33333 0,-0.16667 0,0" stroke="#70bd41"/><path d="M404,349c0.85952,-0.00234 1.71903,-0.00469 2,0c0.28097,0.00469 -0.01662,0.01641 0,0c0.01662,-0.01641 0.34745,-0.06095 2,0c1.65255,0.06095 4.62683,0.22738 7,-1c2.37317,-1.22738 4.14523,-3.84857 8,-7c3.85477,-3.15143 9.79225,-6.8331 14,-10c4.20775,-3.1669 6.68577,-5.81901 11,-8c4.31423,-2.18099 10.46465,-3.89085 15,-5c4.53535,-1.10915 7.45561,-1.61761 10,-2c2.54439,-0.38239 4.71289,-0.63873 6,-1c1.28711,-0.36127 1.69281,-0.82748 2,-1c0.30719,-0.17252 0.51585,-0.05134 1,0c0.48415,0.05134 1.24377,0.03283 2,0c0.75623,-0.03283 1.50907,-0.07999 2,0c0.49093,0.07999 0.71997,0.28713 1,1c0.28003,0.71287 0.61107,1.93145 1,3c0.38893,1.06855 0.83577,1.98705 1,3c0.16423,1.01295 0.04586,2.12034 0,3c-0.04586,0.87966 -0.01922,1.53159 0,3c0.01922,1.46841 0.03102,3.75332 0,5c-0.03102,1.24668 -0.10487,1.45514 0,2c0.10487,0.54486 0.38845,1.42613 0,2c-0.38845,0.57387 -1.44894,0.84036 -2,2c-0.55106,1.15964 -0.59267,3.21244 -2,5c-1.40733,1.78756 -4.18036,3.30987 -6,4c-1.81964,0.69013 -2.6859,0.54807 -5,1c-2.3141,0.45193 -6.07604,1.49786 -8,2c-1.92396,0.50214 -2.00995,0.46048 -5,1c-2.99005,0.53952 -8.88416,1.66021 -12,2c-3.11584,0.33979 -3.4534,-0.10133 -8,0c-4.5466,0.10133 -13.30223,0.74512 -18,1c-4.69777,0.25488 -5.33767,0.12085 -6,0c-0.66233,-0.12085 -1.34707,-0.22853 -2,0c-0.65293,0.22853 -1.27403,0.79327 -2,1c-0.72597,0.20673 -1.55679,0.05547 -2,0c-0.44321,-0.05547 -0.4988,-0.01513 -1,0c-0.5012,0.01513 -1.448,0.00506 -2,0c-0.552,-0.00506 -0.70919,-0.00513 -1,0c-0.29081,0.00513 -0.71523,0.01544 -1,0c-0.28477,-0.01544 -0.4299,-0.05662 -1,0c-0.5701,0.05662 -1.56518,0.21105 -3,0c-1.43482,-0.21105 -3.30937,-0.78759 -5,-1c-1.69063,-0.21241 -3.19732,-0.06069 -4,0c-0.80268,0.06069 -0.90134,0.03034 -1,0c-0.09866,-0.03034 -1.04933,-0.01517 -2,0" stroke="#70bd41"/><path d="M389,355c0,1.31738 0,2.63477 0,3c0,0.36523 0,-0.22169 0,0c0,0.22169 0,1.25199 0,2c0,0.74801 0,1.21372 0,2c0,0.78628 0,1.89314 0,3c0,1.10686 0,2.05343 0,3" stroke="#70bd41"/><path d="M401,188c0.08059,0.42267 0.16118,0.84534 0,1c-0.16118,0.15466 -0.56414,0.04132 0,0c0.56414,-0.04132 2.09536,-0.01062 4,0c1.90464,0.01062 4.18269,0.00114 6,0c1.81731,-0.00114 3.17388,0.00605 5,0c1.82612,-0.00605 4.1218,-0.02533 6,0c1.8782,0.02533 3.33892,0.09527 5,0c1.66108,-0.09527 3.52252,-0.35575 5,0c1.47748,0.35575 2.571,1.32771 3,2c0.429,0.67229 0.1935,1.04489 0,2c-0.1935,0.95511 -0.34499,2.49273 0,4c0.34499,1.50727 1.18644,2.98418 0,7c-1.18644,4.01582 -4.40079,10.57054 -7,14c-2.59921,3.42946 -4.58329,3.73367 -6,5c-1.41671,1.26633 -2.26604,3.49478 -4,5c-1.73396,1.50522 -4.35256,2.28721 -6,3c-1.64744,0.71279 -2.32372,1.3564 -3,2c-0.67628,0.6436 -0.83814,0.8218 -1,1" stroke="#70bd41"/><path d="M346,399c-0.49735,-1.37077 -0.9947,-2.74154 -1,-3c-0.0053,-0.25846 0.48144,0.59539 0,0c-0.48144,-0.59539 -1.93105,-2.64002 -4,-6c-2.06895,-3.35998 -4.75725,-8.03533 -7,-11c-2.24275,-2.96467 -4.03995,-4.21867 -6,-7c-1.96005,-2.78133 -4.08296,-7.08998 -6,-11c-1.91704,-3.91002 -3.62819,-7.42143 -5,-10c-1.37181,-2.57857 -2.40426,-4.22432 -3,-6c-0.59574,-1.77568 -0.75478,-3.68128 -1,-5c-0.24522,-1.31872 -0.57662,-2.05054 -1,-3c-0.42338,-0.94946 -0.93874,-2.11654 -1,-4c-0.06126,-1.88346 0.33157,-4.4833 1,-6c0.66843,-1.5167 1.61244,-1.95026 3,-2c1.38756,-0.04974 3.21866,0.28434 5,0c1.78134,-0.28434 3.51292,-1.18711 7,0c3.48708,1.18711 8.72964,4.4641 11,6c2.27036,1.5359 1.5685,1.33069 3,2c1.4315,0.66931 4.99635,2.21312 8,4c3.00365,1.78688 5.44611,3.81681 7,5c1.55389,1.18319 2.2192,1.51964 3,3c0.7808,1.48036 1.67709,4.10464 2,6c0.32291,1.89536 0.07244,3.06181 0,5c-0.07244,1.93819 0.03314,4.64813 0,8c-0.03314,3.35187 -0.20501,7.34567 0,11c0.20501,3.65433 0.78691,6.9692 0,10c-0.78691,3.0308 -2.94263,5.77752 -4,8c-1.05737,2.22248 -1.01639,3.92071 -1,5c0.01639,1.07929 0.0082,1.53965 0,2c-0.0082,0.46035 -0.0041,0.73018 0,1" stroke="#70bd41"/><path d="M353,349c0.33333,-0.33333 0.66667,-0.66667 1,-1c0.33333,-0.33333 0.16667,-0.16667 0,0" stroke="#70bd41"/><path d="M358,346c-0.46093,0.91069 -0.92185,1.82137 -1,2c-0.07815,0.17863 0.22648,-0.3748 0,0c-0.22648,0.3748 -0.98405,1.67783 -2,3c-1.01595,1.32217 -2.29027,2.66348 -3,4c-0.70973,1.33652 -0.85486,2.66826 -1,4c-0.14514,1.33174 -0.57257,2.16587 -1,3" stroke="#70bd41"/><path d="M348,335c-0.46624,-0.00726 -0.93248,-0.01453 -1,0c-0.06752,0.01453 0.26368,0.05085 0,0c-0.26368,-0.05085 -1.12222,-0.18889 -2,0c-0.87778,0.18889 -1.77479,0.7047 -3,2c-1.22521,1.2953 -2.77863,3.37009 -4,5c-1.22137,1.62991 -2.11068,2.81496 -3,4c-0.88932,1.18504 -1.44466,2.59252 -2,4" stroke="#70bd41"/><path d="M472,317c-0.48504,0.04573 -0.97009,0.09145 -1,0c-0.02991,-0.09145 0.3953,-0.32009 0,0c-0.3953,0.32009 -1.61111,1.18889 -3,2c-1.38889,0.81111 -2.95085,1.56453 -4,3c-1.04915,1.43547 -1.58547,3.55299 -2,5c-0.41453,1.44701 -0.70726,2.2235 -1,3c-0.29274,0.7765 -0.14637,1.38825 0,2" stroke="#70bd41"/><path d="M484,324c0.42308,0.02179 0.84615,0.04359 1,0c0.15385,-0.04359 0.03846,-0.15256 0,0c-0.03846,0.15256 0,0.56667 0,1c0,0.43333 -0.03846,0.8859 0,2c0.03846,1.1141 0.15385,2.88974 0,4c-0.15385,1.11026 -0.57692,1.55513 -1,2c-0.42308,0.44487 -0.71154,1.22244 -1,2" stroke="#70bd41"/><path d="M316,207c-0.42992,-0.03141 -0.85984,-0.06282 -1,0c-0.14016,0.06282 0.00943,0.21985 0,0c-0.00943,-0.21985 -0.1779,-0.8166 0,-2c0.1779,-1.1834 0.70216,-2.95347 1,-4c0.29784,-1.04653 0.36927,-1.36952 1,-3c0.63073,-1.63048 1.82077,-4.56843 4,-7c2.17923,-2.43157 5.34766,-4.35675 6,-5c0.65234,-0.64325 -1.21141,-0.00455 1,-1c2.21141,-0.99545 8.49798,-3.62503 13,-6c4.50202,-2.37497 7.21949,-4.49533 9,-6c1.78051,-1.50467 2.62405,-2.39366 4,-3c1.37595,-0.60634 3.2843,-0.93005 8,-1c4.7157,-0.06995 12.23874,0.11385 16,0c3.76126,-0.11385 3.76075,-0.52536 5,0c1.23925,0.52536 3.71826,1.9876 5,3c1.28174,1.0124 1.36621,1.57497 2,2c0.63379,0.42503 1.81689,0.71251 3,1c1.18311,0.28749 2.59155,1.14374 4,2" stroke="#70bd41"/><path d="M303,180c0.33333,0 0.66667,0 1,0c0.33333,0 0.16667,0 0,0" stroke="#70bd41"/><path d="M333,180c-0.02045,-0.47941 -0.0409,-0.95882 0,-1c0.0409,-0.04118 0.14316,0.35588 0,0c-0.14316,-0.35588 -0.53174,-1.4647 -1,-2c-0.46826,-0.5353 -1.01621,-0.49707 -2,-1c-0.98379,-0.50293 -2.40343,-1.54703 -4,-3c-1.59657,-1.45297 -3.37006,-3.3148 -5,-5c-1.62994,-1.6852 -3.11634,-3.19375 -4,-4c-0.88366,-0.80625 -1.16458,-0.9102 -3,-2c-1.83542,-1.0898 -5.22533,-3.16544 -8,-7c-2.77467,-3.83456 -4.9341,-9.42805 -6,-12c-1.0659,-2.57195 -1.03828,-2.12238 -1,-3c0.03828,-0.87762 0.08723,-3.08244 0,-4c-0.08723,-0.91756 -0.31064,-0.54788 0,-1c0.31064,-0.45212 1.15532,-1.72606 2,-3c0.84468,-1.27394 3.42234,-2.13697 6,-3" stroke="#70bd41"/><path d="M315,127c0.84011,-0.44105 1.68022,-0.8821 2,-1c0.31978,-0.1179 0.11923,0.08735 0,0c-0.11923,-0.08735 -0.15712,-0.46731 1,0c1.15712,0.46731 3.50926,1.78187 5,5c1.49074,3.21813 2.12007,8.33983 3,12c0.87993,3.66017 2.01046,5.85882 3,8c0.98954,2.14118 1.83809,4.22489 2,5c0.16191,0.77511 -0.3628,0.2416 0,1c0.3628,0.7584 1.61313,2.80869 2,4c0.38687,1.19131 -0.08971,1.52364 0,2c0.08971,0.47636 0.74569,1.09676 1,2c0.25431,0.90324 0.10693,2.08933 0,3c-0.10693,0.91067 -0.17341,1.5459 0,3c0.17341,1.4541 0.5867,3.72705 1,6c0.4133,2.27295 0.70665,2.63648 1,3" stroke="#70bd41"/><path d="M306,127c-0.44648,-0.00063 -0.89296,-0.00127 -1,0c-0.10704,0.00127 0.12535,0.00444 0,0c-0.12535,-0.00444 -0.60843,-0.0165 -1,0c-0.39157,0.0165 -0.69163,0.06156 -1,0c-0.30837,-0.06156 -0.62506,-0.22973 -1,0c-0.37494,0.22973 -0.80812,0.85735 -2,0c-1.19188,-0.85735 -3.14245,-3.19968 -4,-4c-0.85755,-0.80032 -0.62207,-0.05862 -1,0c-0.37793,0.05862 -1.36927,-0.56585 -2,-1c-0.63073,-0.43415 -0.90084,-0.67797 -1,-1c-0.09916,-0.32203 -0.02737,-0.72228 0,-1c0.02737,-0.27772 0.01031,-0.43291 0,-1c-0.01031,-0.56709 -0.01389,-1.54608 0,-3c0.01389,-1.45392 0.04523,-3.38276 0,-5c-0.04523,-1.61724 -0.16704,-2.92286 0,-4c0.16704,-1.07714 0.62293,-1.9258 1,-3c0.37707,-1.0742 0.67534,-2.37394 1,-3c0.32466,-0.62606 0.67573,-0.57843 1,-1c0.32427,-0.42157 0.62176,-1.31233 1,-2c0.37824,-0.68767 0.83723,-1.17225 1,0c0.16277,1.17225 0.02933,4.00134 0,6c-0.02933,1.99866 0.04545,3.16688 0,4c-0.04545,0.83312 -0.21115,1.33114 0,2c0.21115,0.66886 0.79914,1.50858 1,2c0.20086,0.49142 0.0146,0.63456 0,1c-0.0146,0.36544 0.14245,0.95318 1,0c0.85755,-0.95318 2.41559,-3.44727 3,-4c0.58441,-0.55273 0.19517,0.8359 2,-1c1.80483,-1.8359 5.80371,-6.89632 9,-10c3.19629,-3.10368 5.59,-4.25061 7,-5c1.41,-0.74939 1.8363,-1.10123 2,-1c0.1637,0.10123 0.06481,0.65553 0,1c-0.06481,0.34447 -0.09554,0.4791 0,2c0.09554,1.5209 0.31733,4.42807 0,6c-0.31733,1.57193 -1.1738,1.80862 -2,3c-0.8262,1.19138 -1.62214,3.33746 -3,5c-1.37786,1.66254 -3.33762,2.84153 -4,3c-0.66238,0.15847 -0.02736,-0.7036 1,-1c1.02736,-0.2964 2.44707,-0.02715 4,-1c1.55293,-0.97285 3.23909,-3.1878 4,-4c0.76091,-0.8122 0.59659,-0.22164 1,0c0.40341,0.22164 1.37457,0.07435 2,0c0.62543,-0.07435 0.90513,-0.07578 1,0c0.09487,0.07578 0.00493,0.22877 0,1c-0.00493,0.77123 0.07517,2.16069 0,3c-0.07517,0.83931 -0.30559,1.12845 -1,2c-0.69441,0.87155 -1.8528,2.32551 -3,3c-1.1472,0.67449 -2.28321,0.56953 -3,1c-0.71679,0.43047 -1.01435,1.39638 -2,2c-0.98565,0.60362 -2.65938,0.84495 -3,1c-0.34062,0.15505 0.65189,0.22381 0,1c-0.65189,0.77619 -2.94817,2.25979 -4,3c-1.05183,0.74021 -0.85919,0.73702 -1,1c-0.14081,0.26298 -0.61506,0.79214 -1,1c-0.38494,0.20786 -0.68056,0.09442 -1,0c-0.31944,-0.09442 -0.6627,-0.16984 -1,0c-0.3373,0.16984 -0.66865,0.58492 -1,1c-0.33135,0.41508 -0.66567,0.20754 -1,0" stroke="#e54f24"/><path d="M309,108c-0.03252,-0.42912 -0.06504,-0.85823 0,-1c0.06504,-0.14177 0.22764,0.00381 0,0c-0.22764,-0.00381 -0.84553,-0.15699 -1,0c-0.15447,0.15699 0.15448,0.62416 0,1c-0.15448,0.37584 -0.77239,0.66034 -1,0c-0.22761,-0.66034 -0.06492,-2.26553 0,-3c0.06492,-0.73447 0.03207,-0.59821 0,-1c-0.03207,-0.40179 -0.06337,-1.34163 0,-2c0.06337,-0.65837 0.22142,-1.03529 0,-1c-0.22142,0.03529 -0.82231,0.48278 -1,1c-0.17769,0.51722 0.06783,1.10416 0,2c-0.06783,0.89584 -0.44902,2.10056 -1,4c-0.55098,1.89944 -1.27176,4.4936 -2,8c-0.72824,3.5064 -1.46395,7.92505 -2,10c-0.53605,2.07495 -0.87243,1.80621 -1,2c-0.12757,0.19379 -0.04631,0.85009 0,1c0.04631,0.14991 0.05769,-0.20659 0,-1c-0.05769,-0.79341 -0.18446,-2.02372 0,-4c0.18446,-1.97628 0.68013,-4.69853 1,-6c0.31987,-1.30147 0.46393,-1.18216 1,-2c0.53607,-0.81784 1.46415,-2.57283 2,-4c0.53585,-1.42717 0.67948,-2.52654 1,-3c0.32052,-0.47346 0.81793,-0.32103 1,0c0.18207,0.32103 0.04878,0.81067 0,1c-0.04878,0.18933 -0.01307,0.07836 0,1c0.01307,0.92164 0.0035,2.8759 0,4c-0.0035,1.1241 -0.00094,1.41803 0,2c0.00094,0.58197 0.00027,1.45199 0,2c-0.00027,0.54801 -0.00013,0.774 0,1c0.00013,0.226 0.00007,-0.387 0,-1" stroke="#e54f24"/><path d="M324,109c-0.8831,0.01945 -1.76621,0.0389 -2,0c-0.23379,-0.0389 0.18173,-0.13617 0,0c-0.18173,0.13617 -0.96073,0.50576 -2,1c-1.03927,0.49424 -2.33883,1.11311 -3,2c-0.66117,0.88689 -0.68395,2.04179 -1,3c-0.31605,0.95821 -0.92536,1.71974 -1,2c-0.07464,0.28026 0.38537,0.07925 2,0c1.61463,-0.07925 4.38386,-0.03675 6,0c1.61614,0.03675 2.07919,0.06775 3,0c0.92081,-0.06775 2.29937,-0.23426 3,-1c0.70063,-0.76574 0.72331,-2.13072 1,-3c0.27669,-0.86928 0.80739,-1.24286 1,-2c0.19261,-0.75714 0.04714,-1.89784 0,-3c-0.04714,-1.10216 0.00405,-2.16577 0,-3c-0.00405,-0.83423 -0.06334,-1.43907 0,-2c0.06334,-0.56093 0.24932,-1.07796 0,-1c-0.24932,0.07796 -0.93395,0.7509 -1,1c-0.06605,0.2491 0.48647,0.07436 1,0c0.51353,-0.07436 0.98806,-0.04834 1,0c0.01194,0.04834 -0.43872,0.11901 -1,0c-0.56128,-0.11901 -1.23317,-0.4277 -2,1c-0.76683,1.4277 -1.62861,4.59179 -2,6c-0.37139,1.40821 -0.25241,1.06054 0,1c0.25241,-0.06054 0.63824,0.16605 1,0c0.36176,-0.16605 0.69945,-0.72473 1,-1c0.30055,-0.27527 0.56396,-0.26713 1,-1c0.43604,-0.73287 1.04471,-2.20675 1,-2c-0.04471,0.20675 -0.74281,2.09412 -1,3c-0.25719,0.90588 -0.07348,0.83025 0,1c0.07348,0.16975 0.03674,0.58487 0,1c-0.03674,0.41513 -0.01837,0.70756 0,1" stroke="#e47728"/><path d="M308,102c0.43458,-0.00017 0.86915,-0.00033 1,0c0.13085,0.00033 -0.04203,0.00117 0,0c0.04203,-0.00117 0.29895,-0.00434 1,0c0.70105,0.00434 1.84622,0.0162 3,0c1.15378,-0.0162 2.31618,-0.06048 3,0c0.68382,0.06048 0.88906,0.2257 1,0c0.11094,-0.2257 0.12757,-0.84232 0,-1c-0.12757,-0.15768 -0.39935,0.14358 -2,0c-1.60065,-0.14358 -4.53018,-0.73199 -6,-1c-1.46982,-0.26801 -1.47994,-0.21563 -2,0c-0.52006,0.21563 -1.55007,0.59452 -2,1c-0.44993,0.40548 -0.3198,0.83754 0,1c0.3198,0.16246 0.82926,0.05532 1,0c0.17074,-0.05532 0.00277,-0.05883 1,0c0.99723,0.05883 3.15968,0.18 4,0c0.84032,-0.18 0.35852,-0.66117 1,-1c0.64148,-0.33883 2.40623,-0.53532 3,-1c0.59377,-0.46468 0.01657,-1.19755 0,-2c-0.01657,-0.80245 0.52748,-1.67448 0,-2c-0.52748,-0.32552 -2.12648,-0.10454 -3,0c-0.87352,0.10454 -1.02156,0.09262 -2,0c-0.97844,-0.09262 -2.78729,-0.26594 -4,0c-1.21271,0.26594 -1.82927,0.97115 -2,2c-0.17073,1.02885 0.10437,2.38134 0,3c-0.10437,0.61866 -0.58822,0.50349 0,1c0.58822,0.49651 2.24851,1.6047 4,2c1.75149,0.3953 3.59419,0.07769 5,0c1.40581,-0.07769 2.37473,0.08452 3,0c0.62527,-0.08452 0.90688,-0.41576 1,-1c0.09312,-0.58424 -0.00226,-1.42147 0,-2c0.00226,-0.57853 0.10216,-0.89834 0,-1c-0.10216,-0.10166 -0.40636,0.01485 -1,0c-0.59364,-0.01485 -1.4767,-0.16104 -2,0c-0.5233,0.16104 -0.68684,0.62931 -1,1c-0.31316,0.37069 -0.77593,0.6438 -1,1c-0.22407,0.3562 -0.20943,0.7955 0,1c0.20943,0.2045 0.61364,0.17421 1,0c0.38636,-0.17421 0.75485,-0.49234 1,-1c0.24515,-0.50766 0.36695,-1.20487 0,-2c-0.36695,-0.79513 -1.22263,-1.6882 -2,-2c-0.77737,-0.3118 -1.47641,-0.04234 -2,0c-0.52359,0.04234 -0.87174,-0.14245 -1,0c-0.12826,0.14245 -0.03665,0.61213 0,1c0.03665,0.38787 0.01832,0.69394 0,1c-0.01832,0.30606 0.99084,0.15303 2,0" stroke="#e47728"/><path d="M434,182c0.0256,0.45632 0.0512,0.91263 0,1c-0.0512,0.08737 -0.1792,-0.19422 0,0c0.1792,0.19422 0.66561,0.86425 1,1c0.33439,0.13575 0.51675,-0.26277 3,-1c2.48325,-0.73723 7.26739,-1.81317 14,-2c6.73261,-0.18683 15.4137,0.51547 22,0c6.5863,-0.51547 11.07782,-2.24869 13,-3c1.92218,-0.75131 1.27502,-0.5207 1,0c-0.27502,0.5207 -0.1779,1.33151 0,2c0.1779,0.66849 0.43658,1.19466 0,3c-0.43658,1.80534 -1.5684,4.88983 -3,7c-1.4316,2.11017 -3.16296,3.246 -5,5c-1.83704,1.754 -3.77975,4.12615 -6,5c-2.22025,0.87385 -4.71803,0.24938 -6,0c-1.28197,-0.24938 -1.34815,-0.12367 -4,0c-2.65185,0.12367 -7.88939,0.24528 -10,0c-2.11061,-0.24528 -1.09429,-0.85747 -1,-1c0.09429,-0.14253 -0.73343,0.18461 -1,0c-0.26657,-0.18461 0.02802,-0.88096 0,-1c-0.02802,-0.11904 -0.37864,0.33923 -1,0c-0.62136,-0.33923 -1.51344,-1.47595 -2,-2c-0.48656,-0.52405 -0.56759,-0.43544 -1,-1c-0.43241,-0.56456 -1.21621,-1.78228 -2,-3c-0.78379,-1.21772 -0.8919,-0.60886 -1,0" stroke="#eb5121"/><path d="M467,182c-4.87134,0.00812 -9.74268,0.01624 -11,0c-1.25732,-0.01624 1.09936,-0.05683 0,0c-1.09936,0.05683 -5.65478,0.21109 -8,1c-2.34522,0.78891 -2.48023,2.21247 -3,3c-0.51977,0.78753 -1.42428,0.93901 -1,1c0.42428,0.06099 2.17735,0.03148 3,0c0.82265,-0.03148 0.71489,-0.06493 2,0c1.28511,0.06493 3.9631,0.22823 13,0c9.0369,-0.22823 24.4327,-0.848 31,-1c6.5673,-0.152 4.30611,0.16375 4,0c-0.30611,-0.16375 1.34285,-0.80702 1,-1c-0.34285,-0.19298 -2.6775,0.06431 -4,0c-1.3225,-0.06431 -1.63283,-0.45023 -3,0c-1.36717,0.45023 -3.79116,1.7366 -7,3c-3.20884,1.2634 -7.20253,2.50383 -11,4c-3.79747,1.49617 -7.39874,3.24809 -11,5c-3.60126,1.75191 -4.80063,1.37596 -6,1" stroke="#eb5121"/><path d="M465,197c0.44695,0.00058 0.8939,0.00117 1,0c0.1061,-0.00117 -0.12865,-0.00408 0,0c0.12865,0.00408 0.6207,0.01516 2,0c1.3793,-0.01516 3.64583,-0.05655 5,0c1.35417,0.05655 1.79596,0.21103 2,0c0.20404,-0.21103 0.17032,-0.78759 0,-1c-0.17032,-0.21241 -0.47723,-0.06069 -1,0c-0.52277,0.06069 -1.26138,0.03034 -2,0c-0.73862,-0.03034 -3.86931,-0.01517 -7,0" stroke="#eb5121"/><path d="M462,184c0.86453,0.00085 1.72906,0.00171 2,0c0.27094,-0.00171 -0.05171,-0.00598 0,0c0.05171,0.00598 0.47778,0.02222 2,-1c1.52222,-1.02222 4.1406,-3.08291 6,-5c1.8594,-1.91709 2.95983,-3.6906 4,-5c1.04017,-1.3094 2.02009,-2.1547 3,-3c0.97991,-0.8453 1.48996,-1.42265 2,-2" stroke="#ea6825"/><path d="M480,189c0.40989,-1.69856 0.81978,-3.39713 1,-4c0.18022,-0.60287 0.13078,-0.11005 0,0c-0.13078,0.11005 -0.3429,-0.16268 0,-1c0.3429,-0.83732 1.24083,-2.23923 2,-4c0.75917,-1.76077 1.37959,-3.88038 2,-6c0.62041,-2.11962 0.81021,-1.55981 1,-1" stroke="#ea6825"/><path d="M485,177c0.01786,1.29167 0.03571,2.58333 0,3c-0.03571,0.41667 -0.125,-0.04167 0,0c0.125,0.04167 0.46429,0.58333 1,0c0.53571,-0.58333 1.26786,-2.29167 2,-4c0.73214,-1.70833 0.86607,-1.35417 1,-1" stroke="#ea6825"/><path d="M490,179c0,1.29167 0,2.58333 0,3c0,0.41667 0,-0.04167 0,0c0,0.04167 0,0.58333 0,1c0,0.41667 0,0.70833 0,1c0,0.29167 0.5,0.14583 1,0" stroke="#ea6825"/><path d="M490,185c1.13333,-0.02222 2.26667,-0.04444 2,0c-0.26667,0.04444 -1.93333,0.15556 0,0c1.93333,-0.15556 7.46667,-0.57778 13,-1c5.53333,-0.42222 8.76667,-2.21111 12,-4" stroke="#d67e24"/><path d="M504,177c-0.42222,-0.02222 -0.84444,-0.04444 -1,0c-0.15556,0.04444 -0.04444,0.15556 0,0c0.04444,-0.15556 0.02222,-0.57778 0,-1c-0.02222,-0.42222 -0.51111,-0.71111 -1,-1" stroke="#d67e24"/><path d="M478,183c0,-0.92262 0,-1.84524 0,-2c0,-0.15476 0,0.45833 0,0c0,-0.45833 0,-1.9881 0,-3c0,-1.0119 0,-1.50595 0,-2c0,-0.49405 0,-0.74702 0,-1" stroke="#d67e24"/><path d="M481,171c0,4.40191 0,8.80383 0,10c0,1.19617 0,-0.8134 0,0c0,0.8134 0,4.44976 0,8c0,3.55024 0,7.01435 0,9c0,1.98565 0,2.49282 0,3c0,0.50718 0,1.25359 0,2" stroke="#d67e24"/><path d="M481,203c-0.42222,0.46667 -0.84444,0.93333 -1,1c-0.15556,0.06667 -0.04444,-0.26667 0,0c0.04444,0.26667 0.02222,1.13333 0,2c-0.02222,0.86667 -0.01111,1.43333 0,2" stroke="#d67e24"/><path d="M246,657c-2.26498,1.32828 -4.52996,2.65656 -5,3c-0.47004,0.34344 0.85486,-0.29796 0,0c-0.85486,0.29796 -3.8895,1.53529 -6,3c-2.1105,1.46471 -3.29688,3.1568 -4,4c-0.70312,0.8432 -0.923,0.83752 -1,1c-0.077,0.16248 -0.01112,0.49312 0,1c0.01112,0.50688 -0.0325,1.19 0,2c0.0325,0.81 0.14113,1.74689 0,3c-0.14113,1.25311 -0.53202,2.82243 0,4c0.53202,1.17757 1.98693,1.96339 3,3c1.01307,1.03661 1.58428,2.324 2,3c0.41572,0.676 0.67595,0.74061 1,1c0.32405,0.25939 0.71193,0.71357 1,1c0.28807,0.28643 0.47634,0.40511 1,1c0.52366,0.59489 1.38272,1.66598 3,3c1.61728,1.33402 3.9928,2.93097 6,4c2.0072,1.06903 3.64609,1.61014 5,2c1.35391,0.38986 2.42285,0.62845 3,1c0.57715,0.37155 0.66252,0.87604 1,1c0.33748,0.12396 0.92706,-0.13261 1,0c0.07294,0.13261 -0.37076,0.65441 1,2c1.37076,1.34559 4.55596,3.51497 8,5c3.44404,1.48503 7.1469,2.28572 9,3c1.8531,0.71428 1.85644,1.34216 3,2c1.14356,0.65784 3.42732,1.34563 5,2c1.57268,0.65437 2.43426,1.2753 4,2c1.56574,0.7247 3.83565,1.55317 8,3c4.16435,1.44683 10.22314,3.51201 15,5c4.77686,1.48799 8.27179,2.39878 11,3c2.72821,0.60122 4.68968,0.89287 6,1c1.31032,0.10713 1.96948,0.02973 4,0c2.03052,-0.02973 5.43242,-0.01179 8,0c2.56758,0.01179 4.30086,0.01744 9,0c4.69914,-0.01744 12.36415,-0.05798 17,0c4.63585,0.05798 6.24253,0.21448 9,0c2.75747,-0.21448 6.66572,-0.79993 9,-1c2.33428,-0.20007 3.0946,-0.01476 4,0c0.9054,0.01476 1.95587,-0.14103 6,0c4.04413,0.14103 11.08193,0.57887 16,0c4.91807,-0.57887 7.71643,-2.17444 10,-3c2.28357,-0.82556 4.05237,-0.88111 5,-1c0.94763,-0.11889 1.07409,-0.30114 2,-1c0.92591,-0.69886 2.65125,-1.91435 4,-3c1.34875,-1.08565 2.3209,-2.04145 4,-4c1.6791,-1.95855 4.06515,-4.91984 5,-6c0.93485,-1.08016 0.41849,-0.27918 1,-1c0.58151,-0.72082 2.26091,-2.96343 3,-4c0.73909,-1.03657 0.53789,-0.86711 1,-1c0.46211,-0.13289 1.58753,-0.56813 2,-2c0.41247,-1.43187 0.112,-3.86035 0,-6c-0.112,-2.13965 -0.03554,-3.99046 0,-6c0.03554,-2.00954 0.03014,-4.17782 0,-6c-0.03014,-1.82218 -0.08504,-3.29828 0,-4c0.08504,-0.70172 0.31001,-0.62906 -1,-2c-1.31001,-1.37094 -4.15501,-4.18547 -7,-7c-2.84499,-2.81453 -5.9225,-3.90727 -9,-5" stroke="#d67e24"/><path d="M252,698c0.03408,0.85776 0.06817,1.71552 0,2c-0.06817,0.28448 -0.23858,-0.00431 0,0c0.23858,0.00431 0.88617,0.30173 1,1c0.11383,0.69827 -0.3061,1.79741 0,3c0.3061,1.20259 1.33823,2.50864 3,5c1.66177,2.49136 3.95316,6.16803 5,8c1.04684,1.83197 0.84911,1.81924 1,2c0.15089,0.18076 0.65039,0.55502 2,2c1.34961,1.44498 3.54932,3.96069 6,5c2.45068,1.03931 5.15233,0.60224 8,1c2.84767,0.39776 5.84136,1.63037 8,2c2.15864,0.36963 3.48223,-0.12372 5,0c1.51777,0.12372 3.22973,0.86452 6,2c2.77027,1.13548 6.59883,2.66563 9,3c2.40117,0.33437 3.37493,-0.52703 5,0c1.62507,0.52703 3.90145,2.44249 6,3c2.09855,0.55751 4.01925,-0.24292 7,0c2.98075,0.24292 7.02153,1.52919 11,2c3.97847,0.47081 7.89464,0.12614 11,0c3.10536,-0.12614 5.39992,-0.03376 8,0c2.60008,0.03376 5.50567,0.00891 9,0c3.49433,-0.00891 7.57739,-0.00186 11,0c3.42261,0.00186 6.18478,-0.00147 10,0c3.81522,0.00147 8.68349,0.00774 11,0c2.31651,-0.00774 2.08125,-0.02949 2,0c-0.08125,0.02949 -0.0085,0.11021 1,0c1.0085,-0.11021 2.95276,-0.41137 4,-1c1.04724,-0.58863 1.19745,-1.46474 2,-2c0.80255,-0.53526 2.25743,-0.72966 3,-1c0.74257,-0.27034 0.77282,-0.61663 1,-1c0.22718,-0.38337 0.65128,-0.80382 1,-1c0.34872,-0.19618 0.62206,-0.1681 1,0c0.37794,0.1681 0.86047,0.47622 1,0c0.13953,-0.47622 -0.06396,-1.73679 0,-2c0.06396,-0.26321 0.39536,0.47092 1,0c0.60464,-0.47092 1.48252,-2.14691 2,-3c0.51748,-0.85309 0.67457,-0.88329 1,-1c0.32543,-0.11671 0.81919,-0.31994 1,-1c0.18081,-0.68006 0.04868,-1.83694 0,-3c-0.04868,-1.16306 -0.01391,-2.3323 0,-3c0.01391,-0.6677 0.00695,-0.83385 0,-1c-0.00695,-0.16615 -0.00348,-0.58308 0,-1" stroke="#d67e24"/><path d="M279,664c-0.4209,-0.41308 -0.8418,-0.82615 -1,-1c-0.1582,-0.17385 -0.05369,-0.10846 0,0c0.05369,0.10846 0.05658,0.26 -1,1c-1.05658,0.74 -3.17262,2.06845 -4,3c-0.82738,0.93155 -0.3661,1.46619 0,2c0.3661,0.53381 0.63703,1.0668 2,3c1.36297,1.9332 3.81799,5.26663 5,7c1.18201,1.73337 1.091,1.86669 1,2c-0.091,0.13331 0.9545,2.06666 2,4" stroke="#d67e24"/><path d="M265,658c0.49571,0.51804 0.99141,1.03607 1,1c0.00859,-0.03607 -0.46994,-0.62625 0,0c0.46994,0.62625 1.88835,2.46891 3,4c1.11165,1.53109 1.91652,2.7506 3,4c1.08348,1.2494 2.44555,2.52868 4,4c1.55445,1.47132 3.30127,3.13466 4,4c0.69873,0.86534 0.34936,0.93267 0,1c-0.34936,0.06733 0.32532,0.53367 1,1" stroke="#d67e24"/><path d="M291,683c0.2486,-0.02208 0.49719,-0.04416 1,0c0.50281,0.04416 1.25983,0.15458 0,0c-1.25983,-0.15458 -4.5365,-0.57414 -7,-1c-2.4635,-0.42586 -4.11383,-0.858 -7,-1c-2.88617,-0.142 -7.00817,0.00615 -11,0c-3.99183,-0.00615 -7.85348,-0.1666 -10,0c-2.14652,0.1666 -2.57791,0.66024 -3,1c-0.42209,0.33976 -0.83488,0.52565 -1,1c-0.16512,0.47435 -0.08256,1.23718 0,2c0.08256,0.76282 0.04128,1.38141 0,2" stroke="#d67e24"/><path d="M276,673c-1.80513,-0.01538 -3.61026,-0.03077 -4,0c-0.38974,0.03077 0.6359,0.10769 0,0c-0.6359,-0.10769 -2.93333,-0.4 -5,0c-2.06667,0.4 -3.90256,1.49231 -7,3c-3.09744,1.50769 -7.45641,3.43077 -10,5c-2.54359,1.56923 -3.27179,2.78462 -4,4c-0.72821,1.21538 -0.8641,1.10769 -1,1" stroke="#d67e24"/><path d="M422,676c0.47607,0.03547 0.95214,0.07094 1,0c0.04786,-0.07094 -0.33248,-0.24829 0,0c0.33248,0.24829 1.37778,0.92222 4,3c2.62222,2.07778 6.82137,5.5594 11,9c4.17863,3.4406 8.33675,6.84017 11,9c2.66325,2.15983 3.83162,3.07991 5,4c1.16838,0.92009 1.08419,0.96004 1,1" stroke="#d67e24"/><path d="M420,676c0,0.45238 0,0.90476 0,1c0,0.09524 0,-0.16667 0,0c0,0.16667 0,0.7619 0,2c0,1.2381 0,3.11905 0,5c0,1.88095 0,2.44048 0,3" stroke="#d67e24"/></g></svg>