<svg width="74" height="43" viewBox="0 0 74 43" version="1.1" xmlns="http://www.w3.org/2000/svg" xmlns:xlink="http://www.w3.org/1999/xlink">
<title>Group</title>
<desc>Created using Figma</desc>
<g id="Canvas" transform="translate(37 382)">
<g id="Group">
<g id="Canvas">
<g id="Page 1">
<mask id="mask0_outline" mask-type="alpha">
<g id="mask0 outline">
<g id="Clip 2">
<g id="Vector">
<use xlink:href="#path0_fill" transform="translate(-37 -381.5)" fill="#FFFFFF"/>
</g>
</g>
</g>
</mask>
<g id="Fill 1" mask="url(#mask0_outline)">
<g id="Vector">
<use xlink:href="#path1_fill" transform="translate(-37 -381.5)" fill="#231F20"/>
</g>
</g>
</g>
</g>
</g>
</g>
<defs>
<path id="path0_fill" fill-rule="evenodd" d="M 0 0L 74 0L 74 42L 0 42L 0 0Z"/>
<path id="path1_fill" fill-rule="evenodd" d="M 71.3331 21.0864C 71.3331 19.142 70.0192 17.3704 67.7047 16.2037L 44.9595 4.79628C 43.824 4.23456 42.7755 3.71604 41.7227 3.32715C 42.5971 5.18517 42.732 7.51851 42.732 9.46295L 42.732 14.5617L 47.0609 14.5617C 47.8048 14.5617 48.3704 15.1234 48.3704 15.858C 48.3704 16.5494 47.8048 17.1111 47.0609 17.1111L 42.7755 17.1111C 42.7755 21.9938 42.7755 26.4876 42.819 28.216C 42.8625 29.5988 43.8675 32.0617 46.0124 33.2716C 48.1964 34.4815 51.1287 34.2222 54.5831 32.4938L 54.6266 32.537L 67.7047 25.9691C 70.0192 24.8025 71.3331 23.0309 71.3331 21.0864ZM 47.0173 36.3395C 46.0994 36.1667 45.2684 35.821 44.6549 35.4753C 41.4181 33.6605 40.1955 30.2037 40.1477 28.3025C 40.1042 26.5309 40.0607 21.9938 40.0607 17.1111L 37.1327 17.1111C 36.3887 17.1111 35.8188 16.5494 35.8188 15.858C 35.8188 15.1235 36.3887 14.5617 37.1327 14.5617L 40.0607 14.5617L 40.0607 9.46298C 40.0607 8.33952 40.0607 4.83952 38.5771 3.50001C 38.1377 3.06791 37.5243 2.85187 36.6933 2.89507C 34.4658 2.93828 33.9828 5.91977 33.7218 8.94446L 33.6348 9.41977C 33.3694 12.1852 32.1904 13.4383 31.2289 14C 31.0984 14.0864 30.9635 14.1296 30.833 14.1729C 31.3159 14.9506 31.5334 15.8148 31.5334 16.7222C 31.5334 19.142 29.915 21.2161 27.6396 21.9506C 30.089 24.1111 32.0599 26.7469 31.3594 30.4198C 30.9635 32.6667 29.4364 34.6543 27.2045 35.6914C 26.8086 35.8642 26.4171 36.0371 25.9777 36.1235L 28.3401 37.3766C 31.1854 38.8457 33.6348 39.4074 36.6498 39.4074C 40.1477 39.4074 42.5101 38.6296 44.9595 37.3766L 47.0173 36.3395ZM 27.0305 14C 26.6346 13.8271 26.1995 13.7407 25.7166 13.7407C 24.0111 13.7407 22.6102 15.0802 22.6102 16.7222C 22.6102 17.4136 22.8756 18.0617 23.2672 18.5802C 23.3107 18.5802 23.3107 18.6234 23.3542 18.6234C 23.6196 18.9691 24.0111 19.2716 24.4505 19.4444L 24.4941 19.4876C 24.8856 19.6173 25.2815 19.7037 25.7166 19.7037C 27.422 19.7037 28.8229 18.3642 28.8229 16.7222C 28.8229 15.5123 28.079 14.4753 27.0305 14ZM 19.7693 32.9259C 22.0447 34.0494 24.2287 34.2222 26.0212 33.358C 27.4221 32.7099 28.4706 31.4136 28.736 29.9876C 29.393 26.3148 26.1561 23.9382 22.9627 21.6049C 22.9627 21.5617 22.9192 21.5617 22.9192 21.5617C 22.4363 21.2592 22.0447 20.9568 21.6488 20.6543C 21.6488 20.6111 21.6053 20.6111 21.6053 20.6111C 20.5568 19.6173 19.9434 18.2345 19.9434 16.7222C 19.9434 13.6543 22.5233 11.1913 25.7167 11.1913C 26.5476 11.1913 27.3351 11.3642 28.0791 11.6666C 28.6055 11.8827 29.3016 12.0555 29.828 11.7531C 30.4415 11.4506 30.833 10.4568 30.9635 9.16047L 31.007 8.68516C 31.1854 7.17282 31.4029 4.9259 32.2774 3.1543C 30.92 3.54319 29.654 4.10491 28.2966 4.79627L 6.38678 16.2037C 4.02438 17.3271 2.71049 19.0987 2.71049 21C 2.66698 22.9444 4.02438 24.7592 6.34327 25.9691L 19.7693 32.9259ZM 74 21.0864C 74 23.9815 72.1205 26.6605 68.9272 28.216L 55.8491 34.784L 46.1864 39.6667C 42.906 41.3086 40.1477 42 36.6498 42C 33.1954 42 30.3109 41.3086 27.074 39.6667L 18.5468 35.216L 5.07284 28.216C 1.87948 26.6173 0 23.8951 0 21C 0.0435064 18.1049 1.92298 15.4691 5.11635 13.9136L 27.074 2.50617C 30.089 0.993827 32.8908 0 36.8282 0C 40.8916 0 43.254 1.03704 46.1864 2.50617L 68.9272 13.9136C 72.1205 15.5123 74 18.1914 74 21.0864Z"/>
</defs>
</svg>
